<?xml version="1.0" encoding="utf-8"?>
<!-- Generator: Adobe Illustrator 23.0.1, SVG Export Plug-In . SVG Version: 6.00 Build 0)  -->
<svg version="1.1" id="Layer_1" xmlns="http://www.w3.org/2000/svg" xmlns:xlink="http://www.w3.org/1999/xlink" x="0px" y="0px"
	 viewBox="0 0 370.5 369.27" style="enable-background:new 0 0 370.5 369.27;" xml:space="preserve">
<style type="text/css">
	.st0{fill:#CCE3BD;}
</style>
<path class="st0" d="M290.63,71.2c-14.83-14.83-38.93-14.83-53.76,0L84.58,223.49c-0.08,0.08-0.12,0.17-0.18,0.25
	c-0.08,0.11-0.16,0.21-0.25,0.31c-0.22,0.33-0.39,0.66-0.51,1.01c-0.04,0.13-0.11,0.21-0.13,0.33c-0.02,0.04-0.04,0.08-0.06,0.12
	l-14.93,62.71c-0.06,0.29-0.08,0.58-0.08,0.84c0,0.06-0.02,0.13-0.02,0.16c0,0.5,0.11,0.95,0.27,1.4c0.04,0.11,0.08,0.21,0.12,0.31
	c0.21,0.45,0.48,0.89,0.84,1.24c0.4,0.41,0.87,0.72,1.38,0.93c0.52,0.21,1.05,0.31,1.59,0.31c0.33,0,0.66-0.02,0.99-0.1l62.71-14.93
	c0.13-0.02,0.21-0.08,0.33-0.13c0.14-0.04,0.27-0.1,0.41-0.16c0.31-0.14,0.58-0.31,0.84-0.52c0.11-0.08,0.21-0.14,0.31-0.23
	c0.04-0.04,0.08-0.06,0.1-0.1l152.32-152.3C305.46,110.14,305.46,86.01,290.63,71.2L290.63,71.2z M284.67,77.16
	c10.49,10.52,11.4,27.03,2.74,38.6l-41.35-41.35C257.66,65.76,274.16,66.66,284.67,77.16L284.67,77.16z M263.76,139.89l-41.82-41.82
	l5.98-5.96l41.8,41.8L263.76,139.89z M89.36,272.47c-1.65-1.65-4.31-1.65-5.98,0l-3.2,3.19l10.79-45.31l18.68-2.08l-2.39,21.63
	c-0.02,0.16,0.04,0.31,0.04,0.48c0,0.16-0.06,0.31-0.04,0.45c0,0.14,0.08,0.27,0.11,0.39c0.06,0.25,0.12,0.48,0.23,0.7
	c0.1,0.27,0.23,0.52,0.39,0.77c0.13,0.21,0.27,0.37,0.41,0.53c0.21,0.23,0.43,0.39,0.68,0.58c0.18,0.12,0.37,0.24,0.58,0.35
	c0.27,0.12,0.58,0.21,0.87,0.27c0.16,0.04,0.29,0.12,0.45,0.14c0.17,0.02,0.31,0.04,0.48,0.04h0.02c0.15,0,0.29-0.02,0.45-0.04
	l21.63-2.39l-2.09,18.68l-45.31,10.79l3.2-3.2C91.01,276.8,91.01,274.12,89.36,272.47L89.36,272.47z M142.36,249.34l94.51-94.51
	c1.65-1.65,1.65-4.33,0-5.98c-1.65-1.65-4.31-1.65-5.96,0l-94.51,94.51l-20.17,2.25l2.24-20.17l94.51-94.51
	c1.65-1.65,1.65-4.31,0-5.96c-1.65-1.65-4.31-1.65-5.96,0l-94.53,94.51l-13.45,1.48l116.92-116.91l41.8,41.8l-116.9,116.93
	L142.36,249.34z M275.7,127.96l-41.82-41.82l5.98-5.98l41.82,41.82L275.7,127.96z M275.7,127.96"/>
</svg>
