<?xml version="1.0" encoding="utf-8"?>
<!-- Generator: Adobe Illustrator 23.0.1, SVG Export Plug-In . SVG Version: 6.00 Build 0)  -->
<svg version="1.1" id="Layer_1" xmlns="http://www.w3.org/2000/svg" xmlns:xlink="http://www.w3.org/1999/xlink" x="0px" y="0px"
	 viewBox="0 0 370.5 369.27" style="enable-background:new 0 0 370.5 369.27;" xml:space="preserve">
<style type="text/css">
	.st0{fill:#CCE3BD;}
</style>
<g>
	<path class="st0" d="M168.78,88.42c0.77,1.43,1.93,2.56,3.34,3.27c1.21,0.77,2.63,1.23,4.16,1.23h20.45c2.94,0,5.4-1.64,6.71-4.09
		c0.65-1.14,0.98-2.29,0.98-3.6V31.4c0-1.31-0.33-2.45-0.66-3.6c-0.17-0.43-0.37-0.85-0.6-1.25c-0.74-3.31-3.79-5.78-7.39-5.77
		l-18,0.04c-1.37,0-2.68,0.3-3.89,0.81c-1.65,0.54-3.06,1.61-3.98,3.01c-0.67,0.82-1.22,1.75-1.61,2.74
		c-0.33,1.15-0.65,2.29-0.65,3.6l0.12,53.83C167.79,86.13,168.12,87.28,168.78,88.42z"/>
	<path class="st0" d="M117.54,108.17v0.29h137.77V88.01h-0.63l0-0.61l-8.72,0.02L245,84.41c-4.16-13.82-13.93-27.85-26.7-37.24
		c-3.07-2.34-6.32-4.41-9.71-6.14l0.1,44.01c0,0.65,0,1.14-0.16,1.8c-0.32,1.8-0.81,3.44-1.79,4.91c-2.12,3.61-6.2,6.07-10.79,6.08
		l-20.62,0.05c-1.83,0-3.57-0.4-5.14-1.12c-1.97-1.07-3.61-2.63-4.72-4.51c-0.98-1.47-1.47-3.11-1.8-4.91
		c-0.16-0.65-0.16-1.15-0.16-1.8V41.54c-0.3,0.16-0.6,0.33-0.9,0.49l0-0.73c-16.99,8.71-30.37,25.92-35.41,42.79l-1.14,3.6
		l-9.16,0.02l0.05,20.45L117.54,108.17z"/>
	<path class="st0" d="M282.8,221.46c-6.68-7.71-15.24-11.42-26.17-11.39l-23.68,0.05l-0.7-0.67l0.11-0.2l-12.07-11.62
		c-6.82,5.58-14.69,9.6-23.18,11.58c-3.17,0.6-6.42,0.92-9.73,0.93c-13.05,0.03-25.25-4.77-35.21-12.89l-12.04,11.64l0.44,0.78
		l-1.03,0.99h-23.68c-10.92,0-19.47,3.72-26.14,11.45c-19.47,22.5-16.2,70.89-14.64,85.7h156.46l-0.31-0.55l66.41-0.15
		C299.16,292.32,302.32,243.92,282.8,221.46z"/>
	<path class="st0" d="M243.29,118.07l-114.94,0.27c-3.92,3.24-6.48,8.52-6.47,14.5c0.02,7.53,4.09,13.96,9.82,16.59
		c1.31,0.67,2.7,1.14,4.17,1.38c1.55,13.5,7.24,25.53,15.5,34.36c1.72,1.84,3.56,3.56,5.52,5.07c2.45,1.96,5.07,3.68,7.86,5.11
		c6.22,3.23,13.13,5.07,20.41,5.07c3.44,0,6.79-0.42,10.03-1.2c4.4-0.83,8.61-2.32,12.54-4.37c2.78-1.44,5.39-3.16,7.84-5.13
		c1.96-1.52,3.8-3.24,5.51-5.09c8.09-8.69,13.69-20.46,15.33-33.67c7.87-0.89,14.04-8.53,14.04-17.83c0-5.86-2.49-11.05-6.29-14.3
		C243.87,118.57,243.59,118.31,243.29,118.07z"/>
</g>
</svg>
