<?xml version="1.0" encoding="utf-8"?>
<!-- Generator: Adobe Illustrator 23.0.1, SVG Export Plug-In . SVG Version: 6.00 Build 0)  -->
<svg version="1.1" id="Layer_1" xmlns="http://www.w3.org/2000/svg" xmlns:xlink="http://www.w3.org/1999/xlink" x="0px" y="0px"
	 viewBox="0 0 370.5 369.27" style="enable-background:new 0 0 370.5 369.27;" xml:space="preserve">
<style type="text/css">
	.st0{fill:#CCE3BD;}
</style>
<g>
	<path class="st0" d="M70.52,112.92c2.79-6.55,5.52-13.12,8.24-19.7c3.57-8.62,1.78-15.82-5.13-20.55
		c-15.13,15.07-27.24,33.16-35.36,53.29c3.11,0.25,6.22,0.51,9.33,0.74C58.21,127.51,66.37,122.67,70.52,112.92z"/>
	<path class="st0" d="M314.62,187.69c-6.09,4.18-10.68,9.62-14.14,16.1c-6.2,11.6-2.79,23.88,8.44,28.98
		c7.29,3.32,14.77,6.24,22.26,9.1c1.13,0.43,2.25,0.8,3.38,1.13c6.91-17.84,10.71-37.22,10.71-57.5c0-4.27-0.17-8.51-0.5-12.7
		c-6.14,0.44-12.07,2.38-17.72,6.04C322.77,181.61,318.81,184.82,314.62,187.69z"/>
	<path class="st0" d="M303.67,113c-3.22,6.09-6.51,12.15-9.86,18.17c-5.53,9.93-2.65,16.71,8.37,19.56
		c13.75,3.55,27.51,7.05,41.25,10.62c-3.35-21.99-11.2-42.5-22.57-60.57C313.57,101.55,307.43,105.89,303.67,113z"/>
	<path class="st0" d="M268.77,297.99c-12.08-14.34-24.02-28.79-36.09-43.13c-7.32-8.7-16.6-11.71-27.65-8.9
		c-13.14,3.34-26.23,6.88-39.4,10.09c-8.81,2.15-16.79,5.65-20.51,14.42c-2.02,4.77-2.82,10.2-3.38,15.42
		c-0.98,9.11,1.37,17.66,7.24,24.7c8.1,9.71,16.78,18.93,25.11,28.45c1.88,2.16,3.94,4.02,6.15,5.61c1.91,0.07,3.83,0.11,5.75,0.11
		c30.78,0,59.52-8.74,83.88-23.87C275.54,313.74,275.16,305.58,268.77,297.99z"/>
	<path class="st0" d="M50.42,261.79c7.63,9.2,14.51,19.04,21.47,28.77c7.04,9.84,16.41,13.7,28.26,11.91
		c4.02-0.61,8.05-1.26,12.09-1.71c11.08-1.25,18.62-8.54,20.17-19.56c1.37-9.74,2.82-19.47,4.22-29.21
		c1.65-11.41-3.05-20.4-13.23-25.85c-8.66-4.63-17.24-9.42-25.81-14.23c-5.86-3.29-12.1-4.95-18.84-4.92
		c-2.47,0.3-5.05,0.25-7.37,0.99c-4.18,1.34-8.29,2.98-12.29,4.81c-10.32,4.75-18.72,11.72-24.82,21.2
		c2.32,7.25,5.13,14.28,8.42,21.04C45.58,257,48.28,259.21,50.42,261.79z"/>
	<path class="st0" d="M194.78,196.17c-5.2-7.24-11.37-13.47-20.03-15.99c-6.33-1.84-13.04-2.52-19.64-3.29
		c-12.69-1.48-25.42-2.65-37.4-3.87c-8.72,0.4-15.81,3.04-21.77,8.34c-5.24,4.67-5.64,11.96-0.9,16.93
		c1.37,1.44,3.19,2.52,4.97,3.46c12.79,6.76,25.63,13.42,38.43,20.15c8.28,4.35,15.04,10.24,19.65,18.57
		c1.06,1.91,3.16,3.57,5.17,4.57c4.33,2.16,9.01,1.92,13.59,0.61c9.78-2.8,19.55-5.62,29.29-8.54c9.22-2.76,11.53-9.68,5.87-17.44
		C206.28,211.83,200.44,204.06,194.78,196.17z"/>
	<path class="st0" d="M158.55,55.8c2.92,0.14,6.37,2.52,8.39,4.88c2.4,2.81,3.83,6.59,5.12,10.16c2.71,7.51,8.63,10.44,16.08,7.38
		c4.49-1.85,8.88-3.94,13.29-5.98c9.35-4.32,18.64-3.92,27.74,0.57c3.63,1.79,7.01,4.11,10.47,6.23c7.66,4.71,14.8,2.19,17.13-6.5
		c2.34-8.73,4.42-17.52,6.48-26.32C240.37,33.51,214.03,26.26,186,26.26c-14.7,0-28.93,2-42.45,5.73c-0.17,0.43-0.31,0.87-0.41,1.32
		C141.38,41.32,149.64,55.36,158.55,55.8z"/>
	<path class="st0" d="M119.39,126.54c13-3.82,26.05-7.53,38.95-11.69c6.2-2,10.03-8.27,10.06-15.87c-0.9-4.18-2.03-9.47-3.18-14.77
		c-2.42-11.19-8.69-18.83-20.29-20.94c-8.78-1.6-17.66-2.68-26.52-3.87c-7.99-1.07-17,3.77-19.95,11.16
		c-6.21,15.53-12.27,31.12-18.05,46.81c-1.42,3.85-1.75,8.15-2.14,12.29c-0.25,2.71,0.97,4.98,4.28,4.83
		c3.92-0.18,7.96,0.02,11.72-0.89C102.73,131.56,111.05,128.99,119.39,126.54z"/>
	<path class="st0" d="M304.05,239.04c-8.31-3.67-16.53-2.39-23.9,2.54c-5.34,3.57-10.24,7.82-15.13,12.01
		c-6.35,5.44-7.38,13.83-2.2,20.35c4.98,6.27,10.06,12.58,15.86,18.07c4.82,4.57,9.97,7.99,15.4,10.45
		c15.33-14.18,27.87-31.33,36.7-50.54c-0.25-0.15-0.5-0.3-0.76-0.44C321.56,246.95,312.83,242.91,304.05,239.04z"/>
	<path class="st0" d="M264.95,87.27c12.12-2.87,23.52-5.73,35-8.21c1.27-0.28,2.57-0.5,3.88-0.68
		c-9.05-9.95-19.35-18.74-30.65-26.15c-2.4,9.6-4.72,19.23-7.07,28.84C265.66,82.91,265.41,84.79,264.95,87.27z"/>
	<path class="st0" d="M49.98,202.98c10.39-3.3,20.27-7.72,28.55-15.01c3.88-3.41,7.82-6.9,8.94-12.4c1.33-6.55,0.01-12.35-3.68-18
		c-6.43-9.84-14.85-16.81-26.54-18.74c-7.93-1.31-16-1.64-22.84-2.22c-4.97,15.41-7.66,31.84-7.66,48.91c0,1.27,0.02,2.54,0.05,3.8
		c1.34,2.06,2.67,4.13,3.97,6.21C34.97,202.25,42.33,205.41,49.98,202.98z"/>
	<path class="st0" d="M195.3,133.41c2.21-0.4,4.39-1.03,6.56-1.66c11.46-3.38,22.93-3.38,34.44-0.28c8.83,2.38,17.61,4.97,26.52,7
		c6.78,1.55,10.6-2.32,9.32-9.15c-0.83-4.43-2-8.83-3.51-13.08c-3.24-9.09-9.29-16.01-17.88-20.34c-6.44-3.25-13.11-6.1-19.85-8.7
		c-4.36-1.68-9.03-2.57-13.56-3.81c-0.06,0.28-0.12,0.55-0.18,0.83c-8.68-0.78-16.07,2.92-23.53,6.53
		c-4.56,2.21-7.93,5.52-10.35,9.89c-4.58,8.27-3.46,16.95-1.09,25.37C183.87,132.03,189.12,134.53,195.3,133.41z"/>
	<path class="st0" d="M250.16,157.56c-11.11,7.75-21.8,16.12-32.59,24.33c-4.35,3.31-8.2,7.14-10.21,12.41
		c-1.48,3.9-0.28,6.77,3.78,6.72c4.48-0.06,9.15-1.04,13.38-2.59c6.56-2.41,12.74-5.8,19.21-8.48c6.8-2.82,13.41-3.7,19.45,2.23
		c2.71,2.66,6.07,4.71,9.34,6.7c2.64,1.61,5.59,2.72,7.11,3.44c5.25-0.04,7.44-2.05,8.62-5.34c2.69-7.52,7.79-13.16,14.05-17.83
		c3.8-2.83,7.97-5.16,11.71-8.06c4.59-3.56,3.85-7.6-1.52-9.62c-1.27-0.48-2.56-0.9-3.88-1.23c-10.75-2.68-21.45-5.53-32.26-7.92
		C266.95,150.25,257.93,152.15,250.16,157.56z"/>
	<path class="st0" d="M163.95,340.21c-5.47-5.88-10.9-11.79-16.43-17.61c-2.95-3.11-5.8-6.4-9.17-9
		c-12.44-9.6-30.12-5.82-43.25-0.04c-0.74,0.33-1.44,0.75-2.12,1.22c21.22,15.3,46.35,25.49,73.61,28.81
		c-0.59-1.01-1.4-1.96-2.18-2.88C164.27,340.53,164.1,340.37,163.95,340.21z"/>
	<path class="st0" d="M94.05,154.56c2.01,1.61,4.28,2.95,6.57,4.15c7.59,3.94,15.9,4.89,24.26,5.7c10.24,0.99,20.43,2.47,30.68,3.18
		c7.47,0.52,13.63-4.21,14.98-11.12c1.2-6.09,1.81-12.29,2.74-18.9c-0.39-1.72-0.51-3.95-1.41-5.8c-2.18-4.43-6.48-5.77-12.64-4.21
		c-17.41,4.4-34.83,8.78-52.21,13.32c-4.23,1.11-8.59,2.28-12.39,4.35C90.31,147.6,90.27,151.54,94.05,154.56z"/>
	<path class="st0" d="M113.19,48.24c3.34,0.58,6.64,1.48,10,1.79c7.09,0.66,11.36-4.39,9.84-11.33c-0.23-1.06-0.59-2.07-1.04-3.04
		c-9.06,3.26-17.73,7.33-25.94,12.1C108.36,47.65,110.74,47.81,113.19,48.24z"/>
	<path class="st0" d="M260.92,205.49c-7.43-5.53-19.91-5.54-27.53-0.31c-5.54,3.8-9.48,9.64-4.54,17.66
		c1.88,3.06,2.64,6.8,3.92,10.24c-0.93,4.83-0.44,6.41,3.1,12.64c3.42,6.03,9.01,8.08,15.21,5.09c3.11-1.5,5.92-3.68,8.68-5.8
		c5.01-3.85,10.07-7.67,14.73-11.92c4.91-4.47,5.13-11.39,0.43-15.91C270.56,212.96,265.8,209.11,260.92,205.49z"/>
	<path class="st0" d="M231.63,138.76c-2.77-0.5-5.58-0.76-8.37-1.13c-10.65,0.25-20.57,3.16-30.02,7.73
		c-9.97,4.82-12.99,13.25-8.68,23.37c3.31,7.76,6.75,10.28,13.05,9.07c2.28-0.43,4.74-1.18,6.56-2.54
		c7.84-5.89,15.5-12.03,23.17-18.15c2.74-2.18,5.46-4.41,7.96-6.85c1.98-1.93,3.4-4.32,2.42-7.32
		C236.76,140.05,234.23,139.23,231.63,138.76z"/>
	<path class="st0" d="M280.95,117.94c4,1.49,6.1-1.95,8.1-4.67c3.14-4.27,6.17-8.63,9.19-12.99c1.61-2.32,3.8-4.96,2.06-7.69
		c-1.87-2.94-5.21-1.37-7.82-0.77c-9.89,2.27-15.7,8.63-15.72,17.33C277.13,112.24,276.92,116.43,280.95,117.94z"/>
</g>
</svg>
