<svg id="Layer_1" data-name="Layer 1" xmlns="http://www.w3.org/2000/svg" viewBox="0 0 713.08 561.93"><defs><style>.cls-1{fill:#ccdecb;}</style></defs><title>CL_Marketing_Classic_WebLogo_mint_vector</title><path class="cls-1" d="M100,78.05l3.88-9.94h4.17l1.41,40.1h-5.18q-2.43-17.31-9.13-25.7T79.84,74.13q-9.47,0-15.66,10.81T58,119.06q0,24.66,6.81,36.62,5.46,9.39,16.11,9.39t17.9-9.4q5.25-6.82,7.32-20.15h5.07q-1.8,17.11-10.86,27A29,29,0,0,1,78,172.51q-17.13,0-28.7-14.5T37.77,120.88q0-25.12,13.35-40.13Q62.49,68,77.75,68a27.45,27.45,0,0,1,11.18,2.26A40.69,40.69,0,0,1,100,78.05Z" transform="translate(-37.77 -17.97)"/><path class="cls-1" d="M118.68,76.76V70.48h42.74v6.28h-7.21c-2.06,0-3.51.48-4.34,1.42s-1.23,2.48-1.23,4.6v74.38q0,4.53,1.18,5.78c.79.84,2.64,1.25,5.57,1.25h12q6.69,0,12.5-7.64t8.9-24.41h5.06l-1.91,38.34H118.68v-6.29H126a4.48,4.48,0,0,0,3.66-1.49,6.38,6.38,0,0,0,1.24-4.19V82a5.47,5.47,0,0,0-1.27-4c-.84-.84-2.3-1.26-4.36-1.26Z" transform="translate(-37.77 -17.97)"/><path class="cls-1" d="M245.91,68l31.23,89.72a12.27,12.27,0,0,0,2.93,5.14,6.19,6.19,0,0,0,4.17,1.35h3v6.29H248.2v-6.29h3.66q4.33,0,6-1.15a3.55,3.55,0,0,0,1.64-3,10.85,10.85,0,0,0-.68-3.45L252.37,138H221.19l-3,8.45a26.31,26.31,0,0,0-1.87,7.84,9.71,9.71,0,0,0,2.71,7.13,9.92,9.92,0,0,0,7.39,2.74h2.65v6.29H197.47v-6.29h1.8a7.35,7.35,0,0,0,5.37-2.3,21.73,21.73,0,0,0,5.09-8.31L239.59,68Zm-9,25.31L223.51,131.4h26.56Z" transform="translate(-37.77 -17.97)"/><path class="cls-1" d="M344.74,78.18,350,69.26h4l.51,34.55h-5.07q-3.95-14.88-11.2-22.28t-16-7.4A16.14,16.14,0,0,0,310,79a16.32,16.32,0,0,0-4.71,11.72,15.15,15.15,0,0,0,1.86,7.43,15.31,15.31,0,0,0,6,5.77q4.14,2.4,14.48,5,12.11,3,16.72,5.47a26.74,26.74,0,0,1,11,10.38Q359,131.2,359,140.47q0,13.85-7.94,22.1a31.6,31.6,0,0,1-23.71,9.94q-13,0-23.76-10.89L297,171.49h-4.17V134.44h4.95q7.38,31.71,29.93,31.71,9.23,0,14.34-5.1a17.25,17.25,0,0,0,5.12-12.73,16.66,16.66,0,0,0-2.25-9,15.9,15.9,0,0,0-7-5.84q-2.6-1.22-12.82-3.85-13.78-3.64-19.66-7.54a24,24,0,0,1-8.64-9.52,31.09,31.09,0,0,1-2.76-13.75q0-13.65,7.63-22.27T322.16,68Q334.49,68,344.74,78.18Z" transform="translate(-37.77 -17.97)"/><path class="cls-1" d="M421.26,78.18l5.24-8.92h4l.51,34.55h-5.07Q422,88.93,414.73,81.53t-16.05-7.4A16.14,16.14,0,0,0,386.49,79a16.32,16.32,0,0,0-4.71,11.72,15.15,15.15,0,0,0,1.86,7.43,15.31,15.31,0,0,0,6,5.77q4.14,2.4,14.48,5,12.09,3,16.72,5.47a26.74,26.74,0,0,1,11,10.38q3.66,6.45,3.67,15.72,0,13.85-7.94,22.1a31.6,31.6,0,0,1-23.71,9.94q-13,0-23.77-10.89l-6.58,9.87h-4.17V134.44h5q7.38,31.71,29.93,31.71,9.22,0,14.34-5.1a17.25,17.25,0,0,0,5.12-12.73,16.66,16.66,0,0,0-2.25-9,15.9,15.9,0,0,0-7-5.84q-2.59-1.22-12.82-3.85Q387.86,126,382,122.13a24,24,0,0,1-8.65-9.52,31.23,31.23,0,0,1-2.75-13.75q0-13.65,7.63-22.27T398.68,68Q411,68,421.26,78.18Z" transform="translate(-37.77 -17.97)"/><path class="cls-1" d="M440.84,70.48h42.68v6.28h-7.71A4.8,4.8,0,0,0,472.2,78a4.87,4.87,0,0,0-1.12,3.48v77.42a5.2,5.2,0,0,0,1.18,3.85,6,6,0,0,0,4.39,1.49h6.87v6.29H440.84v-6.29h6.53q3.38,0,4.76-1.35a5.34,5.34,0,0,0,1.38-4V82.31a5.93,5.93,0,0,0-1.27-4.19,5.21,5.21,0,0,0-4-1.36h-7.43Z" transform="translate(-37.77 -17.97)"/><path class="cls-1" d="M551.62,78.05l3.89-9.94h4.16l1.41,40.1H555.9q-2.42-17.31-9.12-25.7t-15.32-8.38q-9.47,0-15.65,10.81t-6.2,34.12q0,24.66,6.82,36.62,5.46,9.39,16.1,9.39t17.91-9.4q5.23-6.82,7.32-20.15h5.07q-1.8,17.11-10.87,27a29,29,0,0,1-22.3,9.94q-17.11,0-28.69-14.5T489.4,120.88q0-25.12,13.34-40.13Q514.13,68,529.38,68a27.51,27.51,0,0,1,11.18,2.26A40.81,40.81,0,0,1,551.62,78.05Z" transform="translate(-37.77 -17.97)"/><path class="cls-1" d="M525.4,363.45c-2.07-1.36-3.21-3.38-5.88-1.2A5.24,5.24,0,0,0,525.4,363.45Z" transform="translate(-37.77 -17.97)"/><path class="cls-1" d="M747.94,203.15c2.9-.94,3.86-3.73,1.86-4.86-3.52-2-4.59-5.3-5.7-8.7-.94-2.85-2.06-5.54-4.66-7.34-3.84-2.66-4.49-6.87-4.85-11a13.89,13.89,0,0,0-1.16-4.24c-2.39-6-6.74-10.94-8.85-17-1.47-4.24-1.13-8,2.68-11,.47-.38,1.67-.8.79-1.57-2.21-2-2.79-5.56-5.87-6.45-2.09-.6-1.64-1.37-1.09-2.77a11.85,11.85,0,0,0-1.94-12.5c-1.53-1.92-3.2-3.74-4.88-5.55-8.22-8.82-9.61-12.55-2.87-22.59,2.5-3.73,1.58-6.09-2.6-7.8-2.85-1.16-5.88-1.91-8.63-3.24-3.9-1.89-6.27-7.37-3.93-10.23,2.5-3,1-5-.28-7.42-1.56-2.95-3.26-5.82-4.62-8.85-.94-2.1-1.6-2.81-3.93-1.32-3.56,2.31-5.55,1.48-7.1-2.51-.89-2.29-1.4-4.72-2.22-7s-1.46-5.8-4.21-5.93c-2.31-.11-3,3.18-4,5.26-.59,1.22-1.07,2.48-1.69,3.69a10.18,10.18,0,0,1-3.37,3.86c-1.67,1.15-2.73,1-3.7-1-2.42-4.91-3.76-10.15-5.28-15.35C654.73,26,653.94,22,651.34,18c0,6.05-2.1,10.77-4.43,15.42a65.79,65.79,0,0,0-2.56,6.12c-.26.69-.59,1.31.44,2.15,4.23,3.44,4.42,4.89,1.87,9.61-1.8,3.35-2.32,3.4-4.61.25-2.47-3.39-3.77-7.54-6.7-10.61-1.05-1.11-1.93-3.28-4.11-2.08s-2.39,3.21-1.44,5.43,1.75,4.56.07,7c4.47.29,4.23.45,6.59,4.12,1.21,1.88.35,2.33-.85,3a28,28,0,0,1-4.22,2.25c-5.68,2.14-9.18.43-11-5.28a16.4,16.4,0,0,0-3.3-6.54c-1.52-1.62-3.07-1.67-4.92-.55S610.2,51,611,52.72s1.91,3.46,2.72,5.25c1.31,2.88,1.27,5.44-1.87,7.31a8.83,8.83,0,0,0-3.46,3.24c.81.34,2-1.34,2.42.24s.2,3.3-1.43,4.19c-2.09,1.14-4,.87-5.19-1.45,0-.25-.06-.5-.1-.75a3.74,3.74,0,0,0-2.78.26,38.26,38.26,0,0,1,6.11,6.62c2.75,4.2,2.27,7.65-1.26,11.26-1.76,1.81-3.31,3.82-4.9,5.67,2.6-.1,5.55-.57,6.11,3.77.23,1.84,2.57,2,4.39,1.72s3.67-.47,5.51-.56c.83,0,1.9.14,1.41,1.46-.8,2.16-.28,4.42-.59,6.6-.33,2.38-1.47,4.73-4,4.43-2.22-.26-2.79.3-3.45,2.12-.32.87-1.68,1.34-2.52,2.05s-2.57,1-2.57,2.71c4.27.17,4.31.24,7.38-1.49.79-.44,1.3-.68,1.78.14.37.62,1.65,1.21.53,2-1.68,1.27-1.71,3.19-2.24,4.92-.43,1.38-1.1,2.38-2.76,2.54-5.39.53-7.08,3-5.77,8.23.66,2.6,1.48,5.17,2.26,7.85,5.23-2,10.05-.77,14.76,1.38,2,.9,4.38,1.4,3.88,4.52s-2.49,4.61-5.07,4.43c-6.3-.42-10,2.36-13.38,7.58-3.66,5.69-7.44,5.79-12.55,2a2.4,2.4,0,0,1-1.27-2.46c.18-1,1-.92,1.71-1,7.35-.65,11.43-6,16.44-10.9-2.92-.6-4.82.59-6.71,1.67a29.88,29.88,0,0,0-6.75,5.74c-.71.75-1.45,2.15-2.64.8-2.38-2.71-3.18-1.09-4.09,1.21a12.81,12.81,0,0,1-4,4.79c-1.6,1.36-3.28,2.63-4.83,4-3.81,3.45-3.85,4.11-.8,8.17,1.63,2.15,3.64,4.1,4.28,6.84a3.58,3.58,0,0,0,2.77,3c2.49.75,2.43,2.13.37,3.52-1.63,1.11-3.35,2.1-4.93,3.27-1.19.88-2.53,2-1.9,3.66s2.36,2.11,4,1.94c2.08-.21,4.14-.63,6.19-1a6.48,6.48,0,0,1,5.28,1c.79.58,1.85,1.43,1.36,2.41-1.87,3.74-1.07,8.59-5.62,11.31-2.51,1.51-4.17,4.48-6.09,6.9-3.77,4.78-7.87,9.15-13.71,11.68,1.67,2.46,3.92,4.83.08,7.16-.7.42-.15,1.08.06,1.63,1.18,3.1,3.78,4.23,6.84,2.77,2-.94,3.83-2.23,5.81-3.24,2.88-1.47,5-.71,6.93,2,2.31,3.2-.12,4.88-1.57,7-1.12,1.65-3.63,3.22-.48,5.33,1,.67.62,1.37-.2,2a20.1,20.1,0,0,0-2.78,2.42c-.59.67-1,1.79.58,1.68,2.58-.18,5.14-.59,7.71-.92.82-.1.75-.57.73-1.28-.14-5.42.57-6.32,6-6.77,4.05-.34,8.13-.34,11.71-2.81,2,10.07-.53,13.65-10.45,15-2.56.37-5.14.67-7.72.89-3,.25-3.55,1.54-2,4,1.25,2,2.3,4.79,4.7,4.79,2.16,0,2.06-3,2.79-4.73a2.9,2.9,0,0,1,3.14-2,6.37,6.37,0,0,1,5.25,3,2.55,2.55,0,0,1-.67,3.64c-2.92,2.13-2.11,4.17-.22,6.49a30.84,30.84,0,0,0,5.28,5.66c2,1.44,4.4,2.75,6.53,1.52,4.37-2.51,6.2.53,8.18,3.19a82.82,82.82,0,0,1,4.71,7.5c3.33,5.61,6.21,11.59,12.22,15a2.65,2.65,0,0,1,1.36,2.76c-.26,10.74.15,21.48-.65,32.21-.17,2.26-1,3.15-3.09,3.6-8.43,1.84-16.47,5.16-24.78,7.32-13.77,3.57-27.52,3.28-40.35-4.08-3.09-1.78-6-3.82-9.15-5.58-2.35-1.32-4.83-2.42-7.75-1.78.86,1.4,1.77,2.69,2.45,4.09.4.85.8,2,.17,2.82s-1.84.21-2.77,0c-4-.74-7.23-2.29-8.47-6.6a4.25,4.25,0,0,0-1.88-2.64c-3.77-1.35-3.22-3.7-1.58-6.42-4.66.36-6.42-5.76-11.23-4.47-.1,0-.4-.57-.56-.9-1.86-3.87-5.21-4.63-9-4.25s-7.7,1-11.62-.93c-.06,4.45-2.33,5.75-6.09,5.24a6.33,6.33,0,0,0-5.52,1.55c-1.58,1.59-2.74,1.13-3.21-.66-.95-3.67-3.12-3.12-5.66-2-1.47.64-3.19,1.69-4.59.81-4.46-2.82-9.81-3-14.44-5.44-16.9-8.89-33.88-17.66-51-26.15-20-9.91-39.71-20.33-60.57-28.33-4.13-1.59-8.75-2.13-11.2-6.79-1-1.89-3.45-2.73-5.51-3.58-2.5-1-5.08-1.87-7.6-2.87-.68-.26-2.32,0-1.29-1.64-.26-.42-.52-.85-.79-1.27-1.15-.27-2.49,0-3.55-1.29,4-1.64,2.87-4.07,1.28-6.87-2.49-4.37-4.63-8.94-7-13.35-1.15-2.1-1.71-4.61-3.89-6a11.36,11.36,0,0,0-.1,7.59,9.21,9.21,0,0,1-.52,7.51c-.52.94-1.12,2.16-2.51,1.18-1.07-.74-.78-1.72,0-2.5,1.56-1.53.66-2.27-.83-2.93a11.85,11.85,0,0,1-2.57-1.41c-1-.81-2.62-1.61-1.76-3.2,1-1.77,2,0,3.07.27.44.14,1.1.28,1.38.06.78-.61.08-1.31-.12-2-1.42-4.36-.8-5.59,3.13-6.13-2.49-6.76-7.17-12-11.68-17.78-1.8,3.16-4.45,5.11-5.37,8.11-.53,1.71-1.74,4.17,2.08,4.06a2.6,2.6,0,0,1,2.68,2.46c-.07,1.19-1.61,1.25-2.74,1.34-.89.07-2.5-.7-2.51.58,0,2.81-1.13,3-3.39,2.3-.5-.17-1.4.39-1.92.84-4.37,3.79-4.4,11.44.27,15,2.3,1.74,1.78,3.57.74,5-1.32,1.84-2.53-.24-3.62-1-3-2-5.07-1.87-6.22,1.28s-2.87,2.64-5.09,2.13c-14.77-3.4-29.63-6.31-44.5-9.25-17.67-3.49-31.93.87-43.07,15.6-21.22,28-23.48,58-9.6,89.51,4.9,11.13,11.48,21.52,16.75,32.51,9.45,19.73,14.12,40.94,17.9,62.31,2.75,15.57,6.89,30.48,15.89,43.75,8.09,11.93,17.95,22.25,28.52,32,14.93,13.72,30.28,26.85,48.59,36,14.41,7.21,29.29,11.67,45.63,8.18,9-1.91,17.4-5.38,26-8.41s17.18-5,26.39-4.54c17.77,1,34.36,6.11,50.45,13.32,16.33,7.32,33.09,13.37,50.65,17.07,2.45.51,10.26,1.83,11.74,1.83,4.64.7,10.63-.52,10.79-.54,10-1.45,18.26-6.44,25.9-12.67,8.32-6.8,16.56-13.67,24.9-20.44s16.43-14.28,26.57-18.61a67.68,67.68,0,0,0,14.38-8.26c14.1-10.65,25.73-23.74,36.83-37.34,17.4-21.32,34.23-43.13,53.21-63.09,11-11.51,18.86-24.55,23.22-39.82,2.92-10.23.33-18.76-7.41-25.76-6.21-5.62-13.77-8-22-8.32-18.62-.71-37.25-1.6-55.81.92-1.44.19-2.23.32-2.24-1.64-.1-13.33.69-26.62,1.6-39.92.37-5.47,3.28-8.47,7.38-11a23.21,23.21,0,0,1,6.14-2.51c5.92-1.61,12-1.32,18-1.47a7,7,0,0,1,5.32,1.93c3.62,3.34,3.86,3.28,6.74,0,7.85,3.86,15.83,5.19,24.29,3,1.76-.47,1.87-1.72,1.72-3.15-.31-2.82-.24-5.54,2.15-7.79-3.21-1.1-6-2-8.25-4.1-1.22-1.15-3-2.57-1.85-4.34s3.29-1.66,5.09-1a18,18,0,0,1,3.76,2.29c1.42,1,2.73,2.12,4.16,3.08,2.19,1.47,3.65,1.33,4.43-1.67,1-4,2.42-7.84,7.55-8.84-4-4.44-5.61-9.58-7.14-14.78a58.66,58.66,0,0,0-2.66-7.28c-2.22-5-1.71-8.41,2.06-12.42a22.23,22.23,0,0,1,6.45-4.91c3-1.48,2.79-3.07.92-5.31a62.4,62.4,0,0,1-4.6-6.25,8.46,8.46,0,0,1-.68-9A9.69,9.69,0,0,1,747.94,203.15ZM590,167.25c-1.23,1.12-2.11-.45-3.25-.49,1.09-.59,2-2.07,3.33-.83A1.33,1.33,0,0,1,590,167.25Zm5.19,16.41c.32.94-.18.93-.92.76-1.06-.24-2.14-.37-3.42-.59l5.58-6C596.15,180.26,594.53,181.72,595.2,183.66Zm-13.84,52.59c-1,.09-1.74-.84-2-1.9s.56-1.5,1.42-1.88c1.41-.24,1.07,1,1.33,1.7C582.47,235,582.37,236.15,581.36,236.25Zm.17-6.38a13.81,13.81,0,0,1-1-.91,2.26,2.26,0,0,1,1.9-1.66c1.31-.36,2.64-1.78,4-.44.66.64-.09,1.27-.61,1.8C584.61,229.9,583.47,231.3,581.53,229.87Zm3.79,3.66c3-1.13,4.4-.57,6.15,1.48C589,235.21,587.67,234.35,585.32,233.53ZM598,212.19c-.53.38-1-.2-1.08-.61-.49-1.54.67-2.11,2-2.94C599.22,210.13,599.17,211.32,598,212.19Zm132.73-12.52c.13-2.06,1.87-3,2.67-4.31,1.47.31,2.05,1,1.7,1.94-.62,1.68-1,3.76-3.14,4.16C730.75,201.67,730.67,200.55,730.73,199.67Zm4.52,11.46c-1.84-.51-3.74-.3-4.23-2.34-.16-.66,1-1.76,1.72-1.58C734.39,207.64,735,209.09,735.25,211.13Zm-9.89,10.43c-.36.07-.74.1-1.09.19-2.43.69-4.71,2.64-6.85-1.13-1-1.76-4.12-.9-6.32-.71-3.58.3-6.66-.31-8-4.22-.16-.44-.48-1.13-.78-1.17-7.16-.79-1.37-5-2.24-7.57,3.94,4.35,8.91,4.58,14,4.53,3.06,0,6.14-.35,9.17.49a7,7,0,0,1,4.95,4C729.79,219.7,729.25,220.75,725.36,221.56Zm-66.11-64.84c-2,1.91-1.21,5.17-3.55,6.79a1.72,1.72,0,0,0,.46,1.17c3,2.09.54,3.23-.68,4.73-1.94,2.4-2.92.13-4-.78-5.6-4.58-12.1-7.53-18.63-10.44l-6.36-2.83a12.51,12.51,0,0,1,8.5-3.15c3.69-.11,7.39,0,11.09,0,2.87,0,5.68.61,8-2.16,1.49-1.76,7.33-1.09,9.21.53a5.84,5.84,0,0,0,3.63,1.61c1.31.05,2.62.12,4.25.2-3.65,6.71,3.56,5,5.44,8-3.14,1-4.5,4-6.34,6.64-1,1.48-2.06,3.44-4.34,2.54s-3.75-2.2-3.47-5A8.49,8.49,0,0,0,659.25,156.72Zm-6.72,25.56c-1.41,1.17-2.52,2.6-4,3.16a2.87,2.87,0,0,1-3.38-1.55c-.12-.24,0-.9.13-.93,2-.57,3.92-1.1,5.9-1.52C651.53,181.38,652,181.91,652.53,182.28ZM630.26,144c2.23-3.48,2.23-3.48,4.56-.37C633.47,144.54,632,144.06,630.26,144Zm28-4.19c.22-1.29,7.6-7.29,8.73-6.88,2.24.81,3.38,3.05,5.5,4.84-4.35,2.49-8.91,2.6-13.11,3.89C657.6,142.21,658.11,140.66,658.25,139.82Zm15,40c.5.7,1,1.4,1.48,2.09,1.19,1.66,2.19,2.54,3.64,0,1-1.65,2.66-1.05,3.8.07a18.75,18.75,0,0,1,2.08,3c1.92,2.85,4.67,3.15,6.46.28s3-2.46,5.19-.49c1.82,1.61,3.17,4.05,6.1,4.29,1.24.1.75,1.31.44,2a5,5,0,0,1-3,2.61c-4.43,1.5-8.06,5.61-13.6,3.6-2-.73-3.8,1.36-5.45,2.64-2.17,1.68-4.29,3.42-7.34,2-3.2-1.48-3.22-4.43-3.34-7.24C669.55,189.69,671.81,185.11,673.3,179.78Zm6.87-66.22c-.39-.06-1-.49-1-.83-.11-.69.58-1,1.13-1.18s.86.22.84.8S681,113.68,680.17,113.56Zm6.89,17c-.51,1.08.88,3.17-1.77,3.12-1.34,0-2.65-.3-2.36-1.92s1.46-3.43,3.06-3.73S686.79,129.63,687.06,130.58Zm1,34.16c1.51,1.16,1.5,2.18-.07,3.57C687.11,166.92,687.45,165.94,688,164.74Zm5-12.51c1.66.09,1.32,1.37,1.32,2.4a1.9,1.9,0,0,1-1,1.65,4.36,4.36,0,0,1-1.74-3.14C691.32,152,692.38,152.19,693,152.23Zm33.89,38.12c-.19.58-.84.22-1.26.05-1.68-.68-1.56-1.83-.75-3.6C726.15,188,727.42,188.78,726.92,190.35Zm-4.7-24.3c2.25-1.13,2.54,0,2.58,1.8.16,6.44-3.39,11.2-7.38,15.64-1.27,1.42-3.15.62-4.13-.78s-.36-2.84,1.16-3.68a7.41,7.41,0,0,1,1.77-.53c1.76-.45,4-.51,4-3a5.61,5.61,0,0,0-3.59-5.19,13.41,13.41,0,0,0-6.16-.95c-2.21,0-4.44.09-6.65,0-2.6-.14-4.24-1.56-4.55-4.49.37.31.73.64,1.12.92.86.61,1.35,2.19,2.6,1.67a2.62,2.62,0,0,0,1.22-3.22c-1.3-4.67,2.77-4.4,5.11-5.59,2.54-1.29,4.51-.12,6,2,.94,1.3,1.79,2.66,2.74,3.95S720.53,166.89,722.22,166.05Zm-16.56-28.19c0-.45.1-1,.74-1a1.47,1.47,0,0,1,1.3,1,1,1,0,0,1-.87.93A.94.94,0,0,1,705.66,137.86Zm10.82-.6c.73,1.54-1,1.62-1.71,2.21a25.19,25.19,0,0,1-2.59,1.51,20.46,20.46,0,0,1,.46-3.28c.33-1-.54-2.82,1.29-2.83C715.14,134.87,716,136.2,716.48,137.26Zm-7.29-10.59s0-.06,0-.1h.09c.55-1.48,2-1.92,3.21-2.6a1.29,1.29,0,0,1,1.78.79,2.43,2.43,0,0,1,.06,1.74c-.36.85-1,0-1.52,0-1.18,0-2.36,0-3.53,0a.36.36,0,0,0,0,.09h-.07c-.46,2-4.06,2.52-2.42,5.59.3.56-1.26,1.61-2.11.44-2.31-3.13-4.06-1.27-5.93.47a7.08,7.08,0,0,1-2.08,1.48c-1.69.66-2.45-.65-3.12-1.82-.84-1.48.67-1.65,1.39-1.94A72.22,72.22,0,0,1,709.19,126.67ZM694.75,125c-1.16,1-2.48,1.9-4,1s-1.89-2.52-2.24-4.09c-.26-1.13.33-1.52,1.4-1.51,3,0,6.06,0,10.11,0C697.71,122.42,696.25,123.72,694.75,125Zm-.34-18.84c0-.35.68-1,.9-.94,1.59.38,1.28,1.89,2.37,3.67C695.52,108,694.29,107.68,694.41,106.15Zm5.24-3.16c-1.76.69-2.57-.49-4-1.77C697.88,100.76,699,101.18,699.65,103Zm-3.16-22a6.75,6.75,0,0,1-4.65.16C693.43,78.36,694.87,78.26,696.49,81ZM693.63,93.1c1.67-.12,3.67-.68,4.74,1.11,1.18,2-1.15,3.55-1,5.59.07.84-1.43.42-2.22.47-3.81.25-7,1.52-8.45,5.53-2-2.5-4.45-1.85-6.82-1.45-2.86.47-5.62,1-7.91-1.54-1.7-1.86-2,.85-3.25,1-2.36-3.08-1.25-5,1.6-6.36s6.3-2.24,8.67-4.78c.33-.35.77-.67,1.28-.36C684.61,95,689.14,93.43,693.63,93.1Zm-8.88-39.81c1.9-.61,1.25,1.77,1.56,2.87.38,1.39.12,2.76,2.45,3.07,1.62.22,2.33,2.65,2,4.34-.36,2.24-2.39.83-3.69,1.19-1.14-.83-2.66,1.52-3.59-.35-1.25-2.52-3.79-4.57-3.73-7.51C679.86,54.12,682.92,53.88,684.75,53.29Zm-6.37,20.62c.87-1.07,1.74,0,2.52.47,1.36.73,2.66,1.58,4.82,2.89-2.67,0-4.27.09-5.85,0-.81-.06-2.15.9-2.36-.61A4,4,0,0,1,678.38,73.91Zm-4.78,9.6c1.29.33,3.35.54,3.36,2.69s-3,4.29-5.7,4.32c-1-.28-2.81.79-2.79-1.62S671.57,83,673.6,83.51Zm-2.42-19c.66,0,.84.74,1,1.35.2,1-.37,1.27-1.23,1.25-.71,0-1.16-.32-1-1.09S670.43,64.52,671.18,64.49Zm-8-9.93c.8-.53,2.68.37,2.76,1.08.24,2-2,2.2-3.06,3.5C662.61,57.45,661.48,55.68,663.17,54.56Zm-.77,25.16c2.77-2.26,6.2-2.45,9.86-3.21-1.86,4.15-5.39,5.18-8.81,6.38a1.36,1.36,0,0,1-1.8-.71C660.88,81,661.7,80.29,662.4,79.72Zm4.34,16.21c0,.73-.32,1.47-1,1.11-1.09-.54-3-.11-3-2.09,0-.69.49-1.54,1.41-1.26A3.33,3.33,0,0,1,666.74,95.93Zm-7.49,11.19a1.15,1.15,0,0,1,1.11,1.22c0,.81-.63.93-1.2,1.12-2.5.87-4.88-.59-5.89-3.81C655.39,105.89,657.14,107.28,659.25,107.12Zm-5.2-35.34c.67,1.68,1.06,3.13-.76,3.91-.9.38-1.89.21-2.1-.71C650.69,72.7,653.5,73.27,654.05,71.78Zm-3.71,44.3c3.37-.7,6.72-1.5,10.11-2.1,4.91-.89,9.18,0,11.48,5,.63,1.38,1.55,1.21,2.62,1.39,2.5.44,4.75,1.29,5.13,4-.35,2.57-.54,4.81-1.81,6.71-1.8,2.69-4.39,3.08-6.76,1.1-2.67-2.21-5.57-2.83-8.75-1.19-1.86,1-3.61,2.16-5.54,2.94s-3.68,2.17-5.33-1c-1.25-2.42-4.45-1-6.53-.72-2.42.37-3.27,0-3.49-2.36s.06-4.43,2.93-5.06c3.13-.7,3.56-1.88,1.82-4.62-1.4-2.21-2.56-3-4.3-.11-2,3.27-4.41,6.27-7.95,8a6.47,6.47,0,0,1-3.91.85,2.6,2.6,0,0,1-1.38-1c-.09-.11.35-.93.7-1.08,3.74-1.6,2.1-3.53.37-5.45-1-1.08-1.67-1.91,0-3.21s.92-3.67,1-5.58c.16-2.25.62-3.73,3.6-3.07,2.48.56,5.14.28,7.72.45,2.92.19,5.43,1.08,5.7,4.54C648,116.4,649,116.36,650.34,116.08Zm-6.06-47.55c1.44-1.32,2,.34,2.9,1-1.17.54-2.32,1-3.28-.08C643.81,69.33,644.05,68.74,644.28,68.53Zm1.83,25.13c0,3-3.43,2.23-5.66,2.43a10.82,10.82,0,0,0-3.59.61c-1.57.78-2.56.63-3-1.06-.43-1.49-.57-2.94,1.53-3.42a16.65,16.65,0,0,1,5.83-.79C642.55,91.69,646.06,91.09,646.11,93.66ZM630.94,73c3.35-1,10.33,3.92,10.38,7.29a4.88,4.88,0,0,1-2,4.13c-1.24,1-1.93,1-2.87-.37-1.93-2.84-4-5.57-6.09-8.33C629.54,74.56,629,73.54,630.94,73Zm-8.15-8c.27,1.78,1.35,3.64-.27,5-.64.52-2.29.43-2.63-.44C618.93,67,622,66.67,622.79,64.93ZM618.07,94c-1,1.07-2.08,1.33-3.17.29s-.42-2.11.52-2.76c2.86-2,2.54-3.89-.13-5.59.56-1,1.9.06,2.15-1.18-2.64-1.34-4.13-3.59-5.24-6.27,1.62-.77,3.43-1,4.35,0,2.92,3.31,7.85,2.72,11.51,5.72-3.46,1.35-6.26,1.84-9.21,1.23a4.86,4.86,0,0,0,2.78,5.42C620.33,92,619.12,92.92,618.07,94ZM620,132.32c-3.53,2.05-6.68,1.64-10.47-1.5,3.18-1.1,5.9-3.16,9.35-3.16,1.25,0,2.62.18,3,1.53C622.41,130.78,621.19,131.61,620,132.32Zm2.26-24.73a8.34,8.34,0,0,1,.16-.87c.46-1.57,0-4.14,1.53-4.49,1.85-.4,4,.63,6,1.12.75.18.66.92.63,1.52-.07,1.25-1.06,1.11-1.88,1.23C626.55,106.42,623.94,104.8,622.24,107.59Zm-2.51,54.8c.76-1.21,1.39-1.64,2.43-.32a25.8,25.8,0,0,0,2.45,2.77c1.22,1.15,1.87,2.18.13,3.45-2.12,1.55-.91,2.68.63,3.57,3.38,1.95,6.66.1,7.56-3.87.29-1.29-1.23-4.37,2.36-3.55,4.18.95,5.58,2.73,4.75,5.84-.39,1.42-.82,2.83-1.23,4.25-1.27,4.35-1.2,4.15-5.45,2.71-3.85-1.3-2.31,2.16-3,4.12-3.25-3.07-6.42-5.8-9.28-8.82C618,169.29,617.71,165.61,619.73,162.39Zm7.94,40c0,1.79-1.77,1.58-3,1.71-.6.06-1.21,0-1.88,0-1.4-.45-4,.7-4.18-.94-.27-1.91,2.39-2.31,4-3.08a4,4,0,0,1,2.11-.34C626.2,199.88,627.65,200.78,627.67,202.34Zm-8.83-20.21a3,3,0,0,1,2.24,1.83c.26.79-.43,1-1.05,1a1.72,1.72,0,0,1-1.81-1.39A1.3,1.3,0,0,1,618.84,182.13Zm-5.78-5.07c1.09,0,1.38,1.16,1.75,2.08-.32.69-.19,2-1.34,1.71a2.5,2.5,0,0,1-2.09-2.21A1.6,1.6,0,0,1,613.06,177.06ZM604.84,187c2,2.85,3.94,4.86,4.79,7.62a2.64,2.64,0,0,1-1.4,3.41c-1.65.77-2.5-.68-3.11-1.81C603.67,193.55,604.53,190.71,604.84,187Zm1.91,22.72a3.74,3.74,0,0,1-3.09.15C605.16,208.07,605.16,208.07,606.75,209.71Zm6.22,22c-.59.61-1.17.77-1.83,0-2-2.26-4.64-1.9-7.82-1.84a17,17,0,0,1,5.91-4.16c2.49-.91,3.88.72,5,2.64C615.26,230.06,613.88,230.8,613,231.72Zm21.21,37.1c-1.33,1.43-2.39,3.1-3.66,4.59-1.42,1.67-3,4.28-5,3.82-2.27-.52-2.9-3.66-4-5.76-1-1.87,1-2.51,2.12-3.23C627,266,631,266,634.92,264.79A3.6,3.6,0,0,1,634.18,268.82Zm-8-23.35a4,4,0,0,1-2.5-.09c-.89-.4-.45-1.3,0-1.85.84-1.06,1.37-2.95,3.37-1.58,2.43.05,1-2.61,2.47-3.47,1.09-.65,1.09-3.07,3.08-2.36,1.05.38,1.35,1.76,1,2.89-.45,1.55-.4,3.58-2.88,3.55-1.22,0-2.44.06-3.66.1C626.82,243.63,627.7,245.05,626.14,245.47ZM631.46,220c-2.52-3.31-4.19-3.59-7.26-.61-1.72,1.66-4.69.82-5.85,4-.61,1.7-7.6-2.23-7.69-4.76-.15-3.92,1.37-7.05,4.87-8.86,4.57-2.38,9.38-3.65,14.58-2.21,1.42.39,2.91.81,4.18-.42a3.48,3.48,0,0,0,.33-4.46c-1.31-2.26-.23-3.22,1.65-3.7,4.45-1.13,9.27-.5,13.17-4,3.34-3,7.34-5.35,11.44-8.25a17.17,17.17,0,0,1,.69,9.49c-.43,2.49-1.68,4.49-4.73,4-1-.15-1.6-.21-1.92.94a2.07,2.07,0,0,1-2.63,1.48c-2.81-.71-5.51,1.53-8.43,0-1.38-.73-2.77.66-3.81,1.73-1.39,1.4-2.46,3.3-4.1,4.22-2.89,1.65-1.85,3-.27,4.66a7.34,7.34,0,0,0,7.45,2.13c5.12-1.3,10.19-2.79,15.3-4.14a7,7,0,0,1,5,.09c-3.06,2.73-6.2,5-8.68,8-2.85,3.43-5.54,7-7.08,11.19-1.08,2.94-3,3.15-5.12,1.76-1.65-1.1-4.77-1.45-3.78-4.81,0-.13-.41-.49-.69-.63C635.08,225.34,633.4,222.57,631.46,220Zm25.74,33.81c-.83-1.49-1.05-2.48-1.66-2.85-.86-.53-1.83-.88-1.61-2,.12-.68.94-.65,1.53-.58a2.64,2.64,0,0,1,2.3,2.06C658,251.25,657.49,252.24,657.2,253.83Zm-9.42-11.36c0,.9,0,1.73-1.13,1.57-.77-.11-1.51-.45-1.43-1.33a1.85,1.85,0,0,1,1.66-1.73C648.06,240.9,647.52,242,647.78,242.47ZM591.25,374.08c1.73.38,4.85.93,4.71,3.16-.12,2-3.09,1-4.32,1.74-1.5-.17-3.36.23-3.17-1.37C588.64,376.17,589.75,373.76,591.25,374.08ZM571.46,418.3c-.65-.72-1.28-1.44-1.68-1.89-.83-.35-1,0-1.18.3-.77,1.46-2.05,1.58-2.93.48-1.42-1.76,0-3.14,1.1-4.47.92-1.06,1.85-1.67,3.05-.44s2.48,2.69,3.75,4c.79.84,1.06,1.7.08,2.53S572.07,419,571.46,418.3Zm1.11,17.11a1.85,1.85,0,0,1-2,.67,2.85,2.85,0,0,1-2.3-2.09c-.59-1.46,0-2.53.81-3.93.92,1,1.68,1.77,2.34,2.59S573.36,434.09,572.57,435.41Zm-8.6.35c-.86-.32-1.81-.59-1.69-1.64a2.28,2.28,0,0,1,1.84-2c1.13-.23,1.41.71,1.38,1.59A1.89,1.89,0,0,1,564,435.76Zm0,10.46c-1.13.14-1.31-.83-1.34-1.67,0-.68-.11-1.49.88-1.67a2.52,2.52,0,0,1,1.8,1.58A1.45,1.45,0,0,1,563.94,446.22Zm-17-57.77a1.19,1.19,0,0,1-1-1.59c.21-.78.9-1,1.72-1,3.21,0,4.95,1.81,5.07,5.5C550.65,390.54,549.43,388.28,546.92,388.45Zm3.28,38.92c.07.15-.7.95-.85.89-1-.43-2-1-3-1.53.48-.82.66-1.82,1.46-1.73C549.12,425.13,549.71,426.3,550.2,427.37Zm-7.35-47.3a9.41,9.41,0,0,1-2.57-.61c-1.64-.88-4.27-1.64-3.26-4,.92-2.2,3-.58,4.46,0s2.47,1.06,3.69-.67c1.39-2,2.11.35,3,1,1.37,1,.71,1.65-.41,2.35C546.3,379,545,380.06,542.85,380.07Zm2.74,32.1c0,.77-.75.93-1.34.5-1.36-1-2.17-2.19-1.27-4.16C544.55,409.37,545.63,410.41,545.59,412.17Zm-3.82,5.72c.75.5,1.06,1.08.55,1.8-1.55,2.14-3.51,1.4-5.51.68C538.64,419.81,538.69,415.89,541.77,417.89ZM533.83,408c-.38-.55.47-1.13,1.08-.9,1.39.51,3.33.5,3.19,2.8-.06.76-.42,1.85-1.14,1.38A11.94,11.94,0,0,1,533.83,408Zm3.86-36.8a1.36,1.36,0,0,1,1.1-1.26c.83-.1.92.55.91,1.18s-.36,1.12-1.14,1C538,372.06,537.61,371.81,537.69,371.24Zm3.2-13.92c1.75-.73,2.5.79,3.93,1.81-1.87,1.22-3.3,1.22-4.45-.31A1,1,0,0,1,540.89,357.32ZM553,419.44c1.22-1.38,1.18-3.16,1.8-4.72a4,4,0,0,1,3.18-2.55,12.55,12.55,0,0,1-2,9.11c-.81,1.22-1.67,1.72-3,.88C551.41,421.21,552.34,420.2,553,419.44Zm5.19,10.22c.9-1.63,2.42-1.29,4.33-1.13-1,1.61-2,2.7-3.73,2.25A.79.79,0,0,1,558.21,429.66Zm11.67-35a13.74,13.74,0,0,0,5.31-3.79c.61-.68,1.25-2,2.29-1.37,1.44.93,1.66,2.62,1.36,4.27-.18,1-.11,2.45-1.66,2.41-2.39-.08-4.78-.36-7.17-.56C570,395.31,569.93,395,569.88,394.67Zm4.58,29.43c.55,0,1.33-.16,1.24.78-.05.56-.56.71-1.2.72s-1.17-.21-1.15-1C573.37,424,574,424.1,574.46,424.1Zm1.95,7.12c1.41,1.89,2,3.19.61,4.5a1.67,1.67,0,0,1-1.34.16C575,434.41,576,433.21,576.41,431.22Zm-3.91-19.89c-1.4-1.16.56-2.41,2.4-2.65,1,1.42,5.43-.22,3.31,4.14-.69,1.43.73,2.09,2,2.5,2.37.78,2.16,2.86,1.32,4.23-1.12,1.84-2.4-.13-3.22-.76C575.8,416.83,575.08,413.48,572.5,411.33Zm9-11.43c.95.32,1.91.61,1.69,1.94-.24.76-.78,1.49-1.51,1.32-1.13-.25-1-1.49-1.21-2.37C580.28,400.11,580.6,399.6,581.47,399.9Zm-.4,30.89c.21-1,.74-2,1.82-1.82.82.16.94,1.29,1,2.16,0,1.17-.78,1.36-1.73,1.22A1.16,1.16,0,0,1,581.07,430.79Zm1.7-8.38c2.22-3.48,5.26-1.26,7.79-1.64,1-.14,1.32,1.44,1.05,2.32a1.67,1.67,0,0,1-2.42.92C587.29,422.45,585,423.17,582.77,422.41Zm7.56-30.6c-.73-.37-1.33-.79-.76-1.64a4.5,4.5,0,0,1,1.55-1.46c.93-.46,1.24.43,1.56,1.07a14.82,14.82,0,0,0,.74,1.67c2.44,3.51,2.22,4.41-1.54,6.84-1,.67-2.14,1-3,.09-1.16-1.25.36-1.85,1-2.6s2-1,2.24-2.23C592,392.48,591.07,392.19,590.33,391.81Zm-1.12,22.5c0,.71-.39,1.2-1.07,1a1.58,1.58,0,0,1-1.12-1.95c.09-.62.36-1.11,1.15-1.1A2.07,2.07,0,0,1,589.21,414.31Zm1.84-2.18c-.83.07-1.48-.56-1.06-1.4.72-1.42,1-3.47,3.28-3.28.74.06,1.43.39,1.15,1.67C593.76,410.39,593,412,591.05,412.13Zm3.27-6.07c-.94.4-2.58.86-2.82-.43-.42-2.33,1.81-3.11,3.39-4.37C595.28,403.08,597,404.9,594.32,406.06Zm-8.57-26.35a3.11,3.11,0,0,1,2.93,2.76c.17,1.56-1.66,2.38-5.11,2.43-.9-.5-2.68,1.05-3.16-1C580.06,382.36,583.71,379.47,585.75,379.71ZM583.27,357c.81-.09.42.68.67.94-.26.76-.27,1.6-1.22,1.7a1,1,0,0,1-1.15-1.08A1.68,1.68,0,0,1,583.27,357Zm-1.57,19c0,1.42-.82,1.91-2,2.2-1.9.48-3.77,1.15-5.7,1.46-2.84.46-2.74,1.86-1.47,3.8a22.66,22.66,0,0,1,1.42,2.14c1.08,2.14.67,3.57-2,3.82l-.73.1c-4.91.81-4.91.81-5-4.64-.37-3.06.89-5.58,4.47-6.94,2.36-.9,4.17-2.49,2.32-5.35-1.1-1.69.19-1.82,1.25-2.11C577.44,369.61,581.59,372.75,581.7,376Zm-6.23-23c1.54.52,2.8,1.23,3,2.83.07.56-.89,1-1.45.73C575.54,356,574.69,354.91,575.47,353Zm-4,15.52c-2.16.65-2,3.46-4,4.55-.85-4.3-.53-4.72,4-5.36a7.08,7.08,0,0,1,3.29-2.7C575.71,368.67,575.71,368.67,571.44,368.56Zm1.16-9.72a1.47,1.47,0,0,1,1.64,1.43c-.09.87-.44,1.46-1.35,1.33s-1.66-.38-1.65-1.49C571.25,359.2,571.77,358.85,572.6,358.84Zm-4.34-6c.88,2,3,3.39.93,5.43-.8.8-1.93,1-2.52,0C565.45,356.18,566.63,354.57,568.26,352.83Zm-5.62,10.07a1.09,1.09,0,0,1,1.22-1.08c1.36.09,1.2,1.29,1.54,1.9-.22,1-.57,1.77-1.48,1.53C562.81,364.94,562.55,363.94,562.64,362.9Zm.75,5.93c.82.11.9,1.25.65,1.84-.67,1.56-2,.79-3.38.63C561.3,369.67,562,368.67,563.39,368.83ZM562,394.07c0,1.39.36,2.77-1.48,2.47-2.16-.34-4.46-.56-4.64-3.56a3.28,3.28,0,0,1,3.28-3.63C562.31,389.41,561.38,392.51,562,394.07Zm-4-24.06c.35,1.81-3.26,3.8-6.35,3.79-2,.2-2.44-1.06-2.48-2.73-.07-3.06,2.39-4.31,4.45-4.32C555.06,366.74,557.65,367.89,558.05,370Zm-19-21.22c.37-.45,1.12-1.2,1.45-.71,1.72,2.54,4.11,1.81,6.45,1.61a2.36,2.36,0,0,1,1,.36c2.81,1.24,2.54,5.36,5.88,5.63-.2,1.38-.5,2.1-1.44,1.5A16.07,16.07,0,0,0,542,354.79c-1.7.13-3.87-.38-4.54-2.45C537,350.94,538.17,349.83,539,348.79Zm1.16,12.51c-1.92,1.48-3.48,2.06-5.38.92C536,359.48,537.91,360.88,540.18,361.3Zm-6.83-32c.4,1.38,1.28,2.64.56,4.22-1.32-.36-2.91-.61-3.09-2.08S532,329.54,533.35,329.3Zm.24,27.53c.15,1.55-1.09,1.28-2,1.25s-1.87-.08-1.6-1.34c.22-1.05,1.22-1.36,2-1.75A1.91,1.91,0,0,1,533.59,356.83Zm-4-21.94c-1.43,3.06,4.17,4.09,1.14,7.61-1-2.28-3.65-2.84-4.18-4.95C526.24,336.5,527.88,335.74,529.55,334.89ZM525,357c2.47-.44,3.43-.17,2.44,2.38-.46,1.17-.7,2.07.62,2.79s1.55.11,2.19-.93c1.19-1.94,2-.11,2.58.69,1.06,1.55,1.56,3.25,3.2,4.67s-.94,2.49-2,2.54c-2.68.1-3.58.85-2.9,3.66.36,1.45-.15,3.18-.49,4.73s-.68,3.27-2.4,3.31-4.28-.78-4.17-2.84c.42-7.32-4-11.06-9.57-14.14-.28-.16-.44-.56-.91-1.19C518.17,362.15,520.55,357.8,525,357Zm6.43,63.18a5.63,5.63,0,0,1-3.33-3.22c-.3-.79.85-1.33,2-1.73A27.9,27.9,0,0,1,532.8,419C533.11,419.58,532.19,420.46,531.41,420.18Zm-17-87.78c1.39.13,1.36,2,1.87,3.17.29,1-.18,1.41-1.09,1.28-1.13-.15-2.72-.06-2.59-1.72C512.7,334,513.18,332.28,514.44,332.4Zm-8,39.72a2.09,2.09,0,0,1,2.57-.86c4.06,1.68,4.06,1.67,4.78-2.66a18.34,18.34,0,0,1,.72-2.06c1.62,2.34,2.68,4.23,4.64,5.71s-.47,3.77-1.27,5.45-1.77-.2-2.73-.48a37.51,37.51,0,0,1-7.68-3.34C506.78,373.48,505.62,373.26,506.48,372.12Zm8.33,8.12c.3.72.19,1.19-.47,1.49-1.25.58-1.75,1.85-1,2.67,1,1.13,2.66.68,3.6-.36,1.43-1.57,2.8-1.9,4.46-.57,1,.83,2.63,1.54,2.39,3-.22,1.31-1.93.54-2.85,1-1.63.85-3.25,1.72-4.87,2.58,1.33,1.45,3.74-.07,4.92,1.81.55.89,2.07,1.67,1.21,2.74s-2.49.56-3.44-.07a41.05,41.05,0,0,1-4.35-3.81c-.68-.7-2-1.39-2-2.08,0-7.82-6.46-5-10.28-6-2-.53-4-.67-5.66-2.14-.56-.5-1.19-1.14-.89-1.88s1.41-.71,1.93-.41c3.07,1.78,5.39,1.49,7.92-1.37C507,375.09,513.83,377.91,514.81,380.24Zm2.88,53.65a2.47,2.47,0,0,1,1.82,2.45c.06.75-.2,1.76-1,1.67-1.24-.13-1.61-1.31-1.76-2.44C516.8,434.83,516.89,433.75,517.69,433.89Zm-2.28-28.08a1.27,1.27,0,0,1,1-1.65c.73-.08.89.71.9,1.34s.25,1.25-.49,1.43A1.39,1.39,0,0,1,515.41,405.81ZM512,410.47a2,2,0,0,1-1,2.22c-1.3.47-1.74-1-1.93-1.7-.55-2.24-1.66-3.3-4.26-2.31,1.5-4.32,5.75-2.54,8-4.71.1-.1.76.13.88.36a1.55,1.55,0,0,1-.26,2C511.67,407.39,511.55,408.73,512,410.47Zm-.49-10.38c.34-2.14.42-3.46,2-3.86.29-.07,1,.44,1.07.72C514.64,398.64,513.15,398.87,511.46,400.09Zm-11.31-6.58c1.43.33,2.29,1.17,2.23,3.28-1.56-.66-2.85-1-2.85-2.66C499.54,393.91,500,393.47,500.15,393.51Zm-5.93-4.93c-1-.52-1.59-1.3-1.18-2.41a1.81,1.81,0,0,1,2.37-1.23c2.15.75,4.66,1.13,5.19,4.36C498.24,389.52,496.17,389.63,494.22,388.58Zm10.4-17.8c1.06,1.49-.82,1.56-1.56,2.18-1.81,1.51-3.12,4.54-6.32,2,1-1.92,3.21-2.54,4.35-4.37C501.8,369.46,503.78,369.6,504.62,370.78Zm-4.38-32.7c.21,2-.37,3.06-1.71,3.8C498.25,339.91,498.25,339.91,500.24,338.08Zm-.95,14.45a1.26,1.26,0,0,1-1.49,1.31,3.86,3.86,0,0,1-3.31-2.91,1.12,1.12,0,0,1,1.12-1.5C497.4,349.73,498.29,351.29,499.29,352.53ZM489.66,333c1-.61,1.74.18,2.49.75.53.26,1.08.51,1.6.8,1,.54,1.56,1.18.44,2.18s-1.42.1-1.9-.64a12.3,12.3,0,0,0-.86-1.05c-.83.38-1.69.4-2.1-.48A1.65,1.65,0,0,1,489.66,333Zm-5.12,1c.83-.08,1.17.63,1.57,1,.08.71-.2,1-.74,1.06-.78.08-1.45-.1-1.46-1C483.91,334.67,483.94,334.07,484.54,334Zm3.65,12.18c-.51-.5-1-1-1.55-1.48-1.36-1.1-1-1.68.5-2.16,3.42-1.09,6.5-1.13,8.76,2.51-2,1.54-4.25,1.37-6.51,1.31-1.21,3.45-3.69,4.71-7.28,4.21C483,347.51,485.52,346.73,488.19,346.2Zm-.2,27.49c-.11.95-.93,1.25-1.76,1.37s-.74-.54-.66-1c.14-.8.12-1.83,1.36-1.78C487.69,372.32,487.83,373,488,373.69Zm-11,13.86c.86,1.62,2.56,1,4,1,.84,0,2-.15,2.09.95a1.9,1.9,0,0,1-1.89,1.9,42.25,42.25,0,0,1-4.36,0c-.32,2,1.73,2.55,1.85,4.06-5,.9-6.33-.29-5.77-5,.06-.49.18-1,.21-1.46.17-3.79,1.66-6.53,5.74-7.21-2.12-2.87-4.56-5.33-8-6.56-.74-.25-2.1-.87-1.53-1.62a14.14,14.14,0,0,1,3.69-2.76c.63-.41,1.2-.05,1.5.56,1.75,3.57,4.77,5.3,8.48,6.38,1.52.44,1.82,2.13,1.4,3.73-.77,3-3.05,1.55-4.8,1.67-.29.35-.74.68-.82,1.08C478.49,385.61,476.14,385.89,477,387.55Zm-.72,22.57c-.23-.18-.71,0-1.07-.05A23.79,23.79,0,0,0,473.9,413c-.27.89-.63,1.57-1.56,1.77-.76.16-1-.45-1.32-1-.6-1.2.3-1.69,1.06-2.31s1.53-1.49,2.28-2.23c.79-2.43,3.95-3.3,4-6.34,0-1.13,1.17-.9,1.89-.15,1.16,1.2,1.52,2.79,2.08,4.26.47,1.23-2.15,11.05-3.17,12s-1.54,2.53-3.2,1.91a3.94,3.94,0,0,1-2.19-2.8c-.45-1.64.66-2.5,1.84-3.23C477.79,413.54,478.83,412.07,476.29,410.12Zm-3.35-63.73c.11-3.11,5.43-7,8.43-6.09,1.47.43,1.31,1.62,1,2.7-.23.86-7.49,4.93-8.47,4.87C472.72,348,472.92,347.08,472.94,346.39Zm-118.6,55.89c1.08-.23.81,1,1.27,1.09.07,1-.35,1.46-1,1.43s-1.56-.39-1.65-1.11S353.61,402.44,354.34,402.28Zm-1.4-55.18c-.1-1.35.88-1.72,1.93-2,.42,1.16.44,2.15-.9,2.62A.71.71,0,0,1,352.94,347.1Zm1.58,51.14a3.7,3.7,0,0,1,2.79-2.16c1.1-.23.82.89,1,1.25-.07,1.61-.78,2.32-2.11,2.19C355.38,399.46,354.11,399.44,354.52,398.24Zm.71-11.06c.15-.53.6-1.31,1-1.34.89-.08,1,.8,1,1.29.1.88-.12,1.39-.88,1.38S355,388.05,355.23,387.18Zm4.83,14.93c.22.09.37.95.22,1.32-.53,1.28-1.49.7-2.61.36C358.51,402.75,358.85,401.66,360.06,402.11Zm-1.9-23.43c-.29,1.89,2.69,2.81,1.43,4.87-.46.74-1,0-1.51-.3-1.56-1-2.55-2.23-2.13-4.2a1.87,1.87,0,0,1,1.24-1.62A1,1,0,0,1,358.16,378.68Zm-.8-63.76a.88.88,0,0,1-1,.86c-.77-.17-1.4-.49-1.37-1.41,0-.62.45-.85,1-.8C356.79,313.66,357.43,314,357.36,314.92Zm-3.53-28.49c1.31.34,1.47,1.52,1.73,2.51a1.33,1.33,0,0,1-1.16,1.84c-1.35.09-1.92-1-2-2.1A2.11,2.11,0,0,1,353.83,286.43Zm-.95,7.68c1.14-.28.76,1.26,1.4,1.69.22,1-.33,1.42-1.12,1.59a1.58,1.58,0,0,1-1.92-1.29C350.9,294.85,352.1,294.31,352.88,294.11ZM349.31,290a1.41,1.41,0,0,1,1.49,1.2c-.28,1.1-.79,1.9-2,1.91a1,1,0,0,1-1.15-1.12C347.7,290.92,348.07,290.05,349.31,290Zm-6.76-.63c.78.07.72.81.76,1.39-.22,1-.73,1.56-1.75,1.21-.45-.16-1.36-.39-.86-1.15S341.57,289.28,342.55,289.37Zm-3.71-27.95c.18-.76.62-1.41,1.47-1.38s.84.74.9,1.28c0,1-.5,1.42-1.43,1.31C339,262.56,338.66,262.17,338.84,261.42Zm1.43,40.8a34.21,34.21,0,0,0,7.33-2.34,5.3,5.3,0,0,1,6,1.62c1.64,1.83-.94,3-1,4.63a1.3,1.3,0,0,1-1.63,1.12,1.84,1.84,0,0,1-1.18-1.7c-.16-1.1.61-2.65-1.31-2.92-.62-.08-1.46.07-1.47.76,0,1.7-3,2.52-1.7,4.21,2.54,3.22.24,3.3-1.89,3.15-1.54-.11-4.13,1.17-4.46-.86s2.82-1.15,4-2.53c-.78-1.21-2-1.27-3-1.63-.77-.28-1.9-.14-1.92-1.3A2.16,2.16,0,0,1,340.27,302.22Zm4.13,50.56c.06.71-.43,1.74-.1,2.11,2.64,2.91,2,4.16-1.64,5.74-3,1.29-4.32,1.46-5-1.82a15.52,15.52,0,0,1-.16-2c.54-3,.15-5.83,3.26-7.9,1.94-1.3.6-4.56,1-6.92.44-2.58,1-4.66,4.35-3.9,1.67.39,2.16.9,1.66,3C346.87,345.08,344,348.47,344.4,352.78Zm2.79,14.27c-2.08.27-2,4-5,2.3-.75-.43-1.25-1.13-.43-2.11C343.34,365.36,345,365.25,347.19,367.05Zm2.75-44.47a4.74,4.74,0,0,1-4.26-3c-.39-.92,1.06-1.89,1.49-1.62,1.56,1,4.14.34,4.76,2.86C351.61,321.75,351.19,322.64,349.94,322.58Zm-.91,9.1c-.78,0-1.45-.39-1.25-1.34a3,3,0,0,1,1.7-2.21c.92.15,1,.88,1.07,1.59C350.61,330.79,350.33,331.71,349,331.68Zm2.69,60.65c.87.11.6,1.55.37,2.32-.61,1.94-2,1.14-4.55.72C349.76,394.26,350,392.13,351.72,392.33ZM334.2,249.45c1.06-.27,1.52.5,1.7,1.42s-.29,1.37-1.16,1.5c-.77-.28-1.81-.31-1.88-1.38A1.6,1.6,0,0,1,334.2,249.45Zm-.73,11.29a1.42,1.42,0,0,1,.91,1c0,.72-.59.94-1.25.92s-1-.35-.85-.9S332.78,260.54,333.47,260.74Zm-2.1,16.74c0-.49-.16-1-.14-1.46,0-1.35,0-2.89,1.47-3.52s1.71,1.09,2.61,1.59c3.05,1.66,3.61,3.64,1.38,6.57-1.2,1.57-1.14,3.64-.79,5.68a62.86,62.86,0,0,1,.45,14c-.2,3.64-3.32,5.32-5.28,7.71-1,1.23-2.07-.36-2.22-1.38-.57-3.88-1-7.79-1.34-11.7-.15-1.5,1.1-2.06,2.17-2.68,1.26-.73,3-1.33,2.4-3.19a4.63,4.63,0,0,0-3.83-3.57,5.16,5.16,0,0,1-4-1.85c1.78-.78,3.43.54,4.6-.9.06-1.14-1.09-.78-1.53-1.28s-.89-1-.27-1.53a1.42,1.42,0,0,1,1.33-.15C332.06,282.47,331.45,279.63,331.37,277.48Zm1.09,210.85a6,6,0,0,0-1.5.91c-.48.47-.14,2.1-1.49,1.25-1.12-.71-.87-1.87-.13-2.85a4.89,4.89,0,0,1,2.6-1.91c1.36-.37.26-1.09.25-1.65-1.8-1.31-3.36-2.7-1.24-5,.81-.87.34-1.52-.2-2.24-1.28-1.71-1.05-3.39.33-5.27,3.5,3.57,2.84,7.63,1.8,11.77C335.41,485.91,335.33,486.88,332.46,488.33Zm-2.25,13.43c.38-1.34,1.17-3.11,2.67-3.39,1.17-.23,1.63,1.19,1.57,2.1.07,1.81-.6,3-2.06,3.22C331.31,503.82,329.92,502.75,330.21,501.76Zm-.17-3.51c-.42,1-1.2,2.06-2.48.73-.45-1.25-.77-2.51.22-3.68C328.52,496.31,331,496.12,330,498.25Zm-12.71-87c.1-1.34-1.09-1.79-1.66-2.67-.62-.37-1.27-.7-1.85-1.13s-1.26-1-.78-1.79a2.36,2.36,0,0,1,1.41-1c.89-.14,1.11.74,1.41,1.38s.5,1.1.76,1.65c1.13.66,2.61.85,3.28,2.12.55,1,.68,2.26-.52,2.86S317.21,412.83,317.33,411.28Zm1.48,16.22a25.41,25.41,0,0,1-3,2.53,1,1,0,0,1-1.52-.93c.21-1.67,1.71-2.21,3-2.73C317.91,426.13,318.47,426.49,318.81,427.5Zm-19.06-25.18a2,2,0,0,1,.07-3c1-1.08,1.69.09,2.24.87a34.11,34.11,0,0,1,2.67,3.94c1,2,.47,3.64-1.7,4.3a2.19,2.19,0,0,1-2.76-1.29c-.65-1.79,1.58-1.81,2.27-3.25A14.65,14.65,0,0,1,299.75,402.32Zm4.32-25.08c2.52,0,2.15-4.57,5.36-2.66,1,.58.82,1.74-.18,2.47C307.75,378.14,306.52,381.16,304.07,377.24Zm2,39.23c.05-.84.2-1.7,1.22-1.88a2.29,2.29,0,0,1,1.63,2.26,1.32,1.32,0,0,1-1.6,1.49C306.17,418.24,306,417.36,306,416.47Zm2.26-16a1.38,1.38,0,0,1,.22-2c1.84-1.06,1.46-1.78-.06-2.78-.87-.57-.31-1.21.35-1.69,1.9.76,3.33,2.06,3.58,3.92s-1.36,2.74-2.74,3.49C309.18,401.69,308.62,401,308.29,400.48ZM312.68,281c-.66-3-1.21-5.58-4.23-7,2.22-2.41.67-5.61,1.77-8.2.26-.6,1.77-1.06,2.61-.94,1.32.18,1.29,1.63,1.44,2.67.35,2.38,0,4.91,2.67,6.46,1.39.8,2.23,1.25,3.33-.28s.52-1.85-1-2.5c-1.91-.85-1.22-2.66-.78-4.22a1.77,1.77,0,0,1,2.23-1.42c1.86.35,1.67,1.73,1.53,3.15-.21,2.16,1.3,1.89,2.7,1.83.92,0,2.18-.61,2.66.51.53,1.27-.33,2.41-1.25,3.23a59.83,59.83,0,0,1-6.79,5.67c-2.15,1.4-2.4,3.16-2.24,5.34.16,2.35.86,3,2.79,1.16.74-.7,2-1.94,2.75-.69s-.45,2.83-1.74,3.08c-2.16.4-3.71,1.9-5.62,2.55-3.89,1.31-2.81,2.74-.48,4.5,3.22,1.14,6.58,1.85,9.66,3.42,1.12.57,1.94,1.2,1.88,2.41s-.1,2.64-1.61,3c-3.11.73-1.76,2.58-1.14,4.23.42,1.12,1.38,2.15.31,3.38a2.53,2.53,0,0,1-2.38.69c-1.72-.18-1.52-1.7-1.75-2.82-.41-2-.85-3.83,1.06-5.72,1.74-1.73-.43-2.84-1.77-3.36a8.87,8.87,0,0,1-5.06-4.51l-2.69-.69c-1,4,2.91,5.56,4.44,8.37-4,.83-6-.48-6.09-4-.07-2,.09-3.93.14-5.9-.81-2.77-2.22-4.58-5.54-3.9a2.08,2.08,0,0,1-2.45-1.26c-.38-1.36,1-1.41,1.83-1.82,2.57-1.36,4.74-3.45,7.86-3.85C313,283.47,313,282.68,312.68,281Zm12.85,112.28a1,1,0,0,1-1.61.17c-1.39-1.71-3.69-2.67-4.13-5.22-.14-.84-.24-1.42.5-1.84.43-.25,1-1,1.47-.08,1.32,2.51,2.77,1.48,4.47.39,1-.62,2.16-.54,2.46,1.33C326.43,389,326.69,391.56,325.53,393.32Zm3.16,8.42c-.23,1.17-.36,2.24-1.61,2.26a1.19,1.19,0,0,1-1.16-1.48,2.1,2.1,0,0,1,1.68-2.07C328.64,400.32,328.45,401.33,328.69,401.74Zm-17.48-46.27c-.78-.81-.79-1.55,0-2.15a2.26,2.26,0,0,1,1.69-.35c1,.28,1,1.24,1,2.12a12,12,0,0,1-.28,1.4c.07.42.16,1.14.33,1.84.31,1.32-.36,2-1.52,1.87s-1.89-.63-1.43-2C311.34,357.32,312.07,356.36,311.21,355.47Zm0,29.59a5.81,5.81,0,0,1,1.6-1c1.89.06,6.36,6.75,5.64,8.1-.46.88-1.39,1.47-1.87.21-.95-2.44-3.07-3.77-4.72-5.55C311.4,386.33,310.5,385.87,311.21,385.06ZM323,351.46c-.49-2.23-2.54-2.36-2.46-4.44C322.45,347.52,324.2,347.76,323,351.46Zm1.94,5.18c-3.26,1.16-3.52,1-3.25-2.43Zm-3.52-16.51c-.5.36-1-.46-1.16-1-.42-1.57.17-2.55,2-2.91C322.71,337.94,322.56,339.28,321.39,340.13Zm-1.14,21.38a15.86,15.86,0,0,1,4.39,10.61c0,2.46-2.85,5.43-5.24,5.44a1.69,1.69,0,0,1-1.28-.53c-.35-.63.06-1.2.74-1.36,1.7-.4,1.62-1.8,1.41-2.91a88.62,88.62,0,0,0-2.26-9.83c-.28-.91-.63-1.61.11-2.19C319.07,360,319.73,361,320.25,361.51Zm-3.2-42c-1.22-.26-2.41-.69-1.84-2.42,1.75-.94-1.9-3.51.79-3.55a3.84,3.84,0,0,1,3.41,4C319.33,319,318.6,319.89,317.05,319.54Zm.39,61.81c-.18-.24.7-1.19,1.3-.79,1.27.85,3.35.49,3.86,2.36.16.58-.54,1.05-2,.8A6.85,6.85,0,0,1,317.44,381.35ZM306,314.92c.29,2.05,1.77,2.88,3.28,3.69a3.41,3.41,0,0,1,.55.3c.76,1.26.66,3.15,2.78,3.45,1.05.16,1.31,1.14.61,2s-1.52,1.52-2.81.67c-2.07-1.37-1.48-3.6-2-5.48-2.24-.45-4.37-1-4.33-4,0-.7-.28-1.59.72-1.77C305.58,313.64,306,314.42,306,314.92ZM312,410c1,.07,1,.91,1,1.65-.13,1-.52,2-1.68,2s-1.13-1.14-1.16-2A1.56,1.56,0,0,1,312,410Zm7.89,29.72c.31-1.13,1.51-2,2.34-3a3.42,3.42,0,0,1,1.79,3.24,2,2,0,0,1-2.22,2A1.92,1.92,0,0,1,319.85,439.68Zm5.16-18a38.28,38.28,0,0,1,3.24,3.88c.41.62-.3,1.5-1.12,1.5-2.25,0-2.23-2.21-3.06-3.52C323.68,422.89,324.23,422.11,325,421.64Zm.4,7.2c1.11-.07,1.57.92,2.25,1.41-.09.66-.29,1.26-.84,1.1a2.71,2.71,0,0,1-2-1.79C324.75,429.38,325.18,428.86,325.41,428.84Zm4.69,15.9c1.86-.34,1.52,1.71,1.95,2.93-.54,1.43-.37,3.63-2.27,3.74s-2.79-1.6-2.8-3.6C327,445.65,328.81,445,330.1,444.74Zm2.77-39.69c-2.05-.54-1.46-2.78-2.16-4.22-.3-.63.19-1.88.91-1.54,1.58.73,2.34,2.39,3.07,3.94A1.6,1.6,0,0,1,332.87,405.05Zm-.79-9.92c0-1,0-2.33,1.23-2.31s1.2,1.34,1.27,2.4c-.17.72.11,1.93-1,2S332,396.18,332.08,395.13Zm.81-19.81c.12-1.5,0-3,1.53-2.83,1.17.16,2.85.94,2.65,2.5a2.47,2.47,0,0,1-2.37,2.39C332.91,377.38,332.7,376.32,332.89,375.32ZM334,352.53a1.39,1.39,0,0,1,1.52,1.25c-.28.89-.5,1.86-1.64,2.06-.8.14-1.06-.45-1.06-1.08C332.84,353.83,332.78,352.71,334,352.53Zm-7-94.65c.3-.85,1.21-.7,1.91-.48s1.67.5,1.7,1.6c-.57,1-1.48.71-2.28.61C327.33,259.49,326.62,258.92,327,257.88Zm1.38,3.69c1-.37,1.17,1.25,1.49,2.06-.24,2.17-1.81,2.86-3.5,3.24-.93.21-2-.53-1.61-1.39A7.14,7.14,0,0,1,328.37,261.57Zm-9.45-20c1.11.18,2.8-.15,2.48,1.41a2.9,2.9,0,0,1-2.83,2.33c-.88-.1-2.25-.77-1.79-2.27C317.09,242.05,317.43,240.8,318.92,241.61Zm-6.49-14.17c.39-1.42,1.43-3.34,3.46-3.31,1.28,0,1.26,1.23,1,2.49-.7,1,.71,3.45-1.68,3.56C313.85,230.24,312,228.94,312.43,227.44Zm.48,7.61c.81.11,1.38.53,1.26,1.42a1.34,1.34,0,0,1-1.57,1.18,1.9,1.9,0,0,1-1.06-1.29C311.34,235.41,312.11,235.15,312.91,235.05Zm-4.59,4.61c.37-.49.76-1.12,1.4-.93,1,.31,1,1.31,1,2.14-.16,2.21,1,3,3,3.23a2.19,2.19,0,0,1,2.08,2.84c-.29,1.28-1.3,1.65-2.65,1.45-1.67-.76-5.14.26-3.82-3.81.35-1.09-.91-1.61-1.48-2.35C307,241.17,307.73,240.44,308.32,239.66Zm.57,14.78c1.81-.18,3.71.26,5.38-.78,1.43-.9,2.82-1.89,4.4-3a9.12,9.12,0,0,1,.44,1.79c.06,1.33-1.27,3.3.52,3.79,1.35.37,1.21-1.7,1.46-2.83.18-.8.82-.74,1.45-.7a1.72,1.72,0,0,1,1.82,1.49,38.87,38.87,0,0,1,.41,5.48c0,1.63-1.31,1.19-2.44,1.23-3.73.16-6-2.73-9-4.06-1.34-.59-2.21-1.54-3.22.32-.49.92-1.45.86-2.17.13-.41-.41-.91-1-.89-1.49C307.07,254.81,308.05,254.52,308.89,254.44Zm-5.91,10a1.79,1.79,0,0,1,2.75-.83c1.52,1.07,2.17-.2,3-.94a1.08,1.08,0,0,1,0-.35c.62-1.64.8-3.7,3.14-3.86.47,0,1,.56,1.48.86-1.36,1.34-1.57,4-4.27,3.81a3.18,3.18,0,0,1-3.78,3C304.43,266.05,302.73,265.7,303,264.42Zm.76,7.22c.67,1,.33,2.16.15,3.17-.49,2.73.84,4.08,3.18,5.05,1,.4,3.42-.14,2.41,2.06a3.71,3.71,0,0,1-5,2.05C301,282.48,300.47,274.11,303.74,271.64Zm-1.07,23.63c1.5,2.14,1.57,4.59,1.92,6.83,0,3.72-1.07,4.19-5,2.45-4.91-2.16-5.48-5.84-1.62-9.67C299.8,293,301.18,293.15,302.67,295.27Zm-2.78,19.19a3.11,3.11,0,0,1-2.51-2.4c-.25-1.27,1.09-1.39,1.93-2a3.09,3.09,0,0,1,1.94,2.71C301.4,313.6,301.08,314.72,299.89,314.46Zm-4.72-30.36a1.59,1.59,0,0,1,1.53-1.67,1.08,1.08,0,0,1,1.33,1.24,1.8,1.8,0,0,1-1.59,1.68C295.52,285.54,295.14,284.93,295.17,284.1Zm1.51-20.66c.8,1.59,2.2,3.15.24,4.65-.64.48-1.5.7-2,0C293.5,265.89,296.17,265.08,296.68,263.44Zm-2.82,15a6.72,6.72,0,0,1,3.47-4c.67-.33,1.22.43,1.1,1a6.13,6.13,0,0,1-2.73,4.23C294.59,279.59,293.66,279.05,293.86,278.44Zm-1.75,74.91c.73-1.89,1.55-2.29,3.11-.68.82.84,1.74,2.78,3.2,1.38s-.66-2-1.23-2.91-2.13-1.44-.51-2.62c1.23-.88,2.41-1.1,3.51.36.85,1.14,1.32,2.63,3.13,3.45.22-2.19.26-4.34,3.48-4.11,1.25.08.05-1.58-.12-2.39-.21-1,.21-1.48,1-1.62.93-.18.81.59.81,1.2s-.09,1.18.18,1.42c3.32,2.93.41,4.56-1.5,5.86-1.52,1-3.2,1.35-1.71,3.67a1.23,1.23,0,0,1-.76,1.79A2,2,0,0,1,301.9,357c-.41-.87-.5-2-1.86-1.84-.66.09-.92.74-1.09,1.35a2,2,0,0,0,1.14,2.45,17.76,17.76,0,0,1,4.73,4.58c3.22,3.89,3.15,5.15-.71,8.24-.94.75-1.88,1.79-3.24.79-1.7-1.26.5-2,.42-3.24-2-.18-3.72.34-5.23-1-3.05-2.74-3.11-4.37-.14-8.14.56-.72,1.87-1.26,1.27-2.38-.44-.83-1.5-.37-2.33-.38C292.13,357.41,291.16,355.83,292.11,353.35ZM298,384.59a2.74,2.74,0,0,1-1.8-2.81c0-.17.73-.56.82-.48C298,382.12,298.63,383.09,298,384.59Zm-5.46-13.14c.28,2.26,3.63,2.31,3.38,5.11-.09.88-.29,1.84-1.24,2s-1.06-.74-1.42-1.4c-.64-1.16-1.52-2.19-2.14-3.36S290.94,372,292.49,371.45Zm3.3,18.92c-.28,1.59-1,3-2.72,3.38-.95-.17-2.13-.45-1.59-1.47.75-1.4,1-3.45,3-3.72C295.53,388.42,296,389.5,295.79,390.37Zm364.85-30.88a125.32,125.32,0,0,1,16.94-1.63c14.18-.15,28.38-.44,42.54.92a18.22,18.22,0,0,1,9.71,4.18c3.86,3.06,5.27,7,3.8,11.84-3.4,11.21-8.15,21.71-16.31,30.34-21.16,22.35-40.09,46.58-59.56,70.36-9.47,11.58-19.53,22.61-31.32,31.92a54.49,54.49,0,0,1-13,7.66c-10,4.19-18.26,11.17-26.6,17.92s-17.13,13.41-25.07,20.79c-12.83,11.93-27.22,14.63-43.83,10.1a293.49,293.49,0,0,1-43.2-15.09c-17-7.62-34.48-13.11-53.17-14.68-12-1-23.32,1.11-34.47,5.06L370.71,545c-12.69,4.57-25.12,3.75-37.48-1.49a134.43,134.43,0,0,1-29.85-17.63,340.55,340.55,0,0,1-35.79-32.13,98.5,98.5,0,0,1-27.44-55.33c-4.78-31.16-13.93-61-30.53-88.15a80.88,80.88,0,0,1-12.29-47.58c1-18.08,9.07-32.81,21.85-45.11,4.9-4.71,11.26-5.27,17.73-4.38,16.75,2.29,33.19,6.14,49.67,9.83,1.59.35,3.41.37,1.94,2.9-3.25,5.61-2.93,11.57-1.43,17.6a20,20,0,0,0,1,3.54c1.83,4,1.09,6.93-2.35,9.93-4,3.5-3.74,4.72-.33,8.93.56.69,1.2,1.26.63,2.25-1.59,2.74-1.74,5.87-2.36,8.88a8.82,8.82,0,0,1-6.47,6.93,9.31,9.31,0,0,0-4.07,2.44c-.82.85-1.38,1.74-.51,2.93,2.57,3.53,2.56,7.62,2.43,11.72-.21,6.47-.61,12.92,5.52,17.47,1.34,1,.35,3.06.51,4.62.34,3.13-.12,6.69,4.18,7.63,1.33.29.63,1,.36,1.59-.5,1.16-1.13,2.63-.19,3.5,4.66,4.32,3.4,10.24,4.25,15.51,1.27,7.81,2.43,15.6,6.38,22.62a3,3,0,0,1,.23,2.8c-.94,2.35-.11,4.39,1.28,6.22,2.46,3.2,6.15,5.34,7.79,9.3.53,1.26,1.94.58,3,.29,1.17-1.19,2.35-2,3.92-.25a7.4,7.4,0,0,1-3.88,1.18c-.92,2.64,1.52,3.6,2.72,5,4,4.79,9.15,8.61,11.79,14.58,1.35,3.07,3.87,5.34,6.56,7.36.95.73,2.25,1.4,1.89,2.88-.32,1.28-1.62,1.39-2.71,1.47-1.94.13-1.93,1.39-1.92,2.85.08,5.9.08,11.81.11,17.71a34.06,34.06,0,0,0,0,10.08,4.2,4.2,0,0,1-.54,3.43,28.93,28.93,0,0,1-.53,4.39c-.51,1.92-1.36,2.85-4,2.46-5.09-.78-10.2,1.05-15.38.66a12.57,12.57,0,0,0-7.72,1.37c14.79.21,28.62.47,42.51-1.9-4.79-3-5.21-7.56-5.34-12.16-.29-10.34-.07-20.63-1.81-31a42.91,42.91,0,0,1,1.69-19.36c1.79-5.66,5.65-10.77,8.41-16.23,1.09-2.15,3.67-3.58,5.63-5.26,1.7-1.46,3.49-2.89,4.41-4.94,1-2.3,1.6-4.79,5.11-3,1.09.55,1.63-.76,2-1.67,2.4-5.48,4.57-11,2.22-17.09-.56-1.44.13-2,1-2.7,2.78-2.29,3.82-5.36,2.55-8.64-5.16-13.39-1.37-26.24,2.13-39.09,1.71-6.27,1.18-8.44-4.14-11.65a4.91,4.91,0,0,1-2.38-6c.47-1.81.45-3.42-1-4.75-.46-.41-1-.83-.75-1.56,1.67-5.57-.38-11-.63-16.5a48.83,48.83,0,0,1,.57-9.57c.59-3.91-1.37-7.76-.69-11.83a115.82,115.82,0,0,1,16.47,6.65c31.18,14.51,61.78,30.18,92.29,46,2.77,1.44,3.34,4.59,1.51,8.1s-5.36,5.72-8.44,8.16c-2.88,2.27-4.63,5.05-2.94,8.65a8,8,0,0,1,.37,5.68c-.62,2.63-1.3,5.26-1.93,7.89-1.93,8.06-2.95,16.06,1.49,23.72a1.86,1.86,0,0,1,.28,1.74c-1.76,4.27.67,7,3.46,9.67,1.34,1.27,2.69,2.55,3.91,3.93s2.57,3.58,1.57,5c-2.37,3.43,1.07,5.8,1.08,8.78,0,1.75,2.73,2.53,4.61,3.21,3.52,1.27,7.42,1.72,9.29,5.93.61,1.35,3.09,1.15,4.78,1.31,1.41.14,1.82.48,1.36,2.07-1.06,3.62,10.21,4,13.22,5.13,2.67,1,4.58,5.6,7,7,4,2.3,5.56,3.13,4.83,8.53.58-.12-1,1.48-2.86,3-.58.48-31.14-.12-27.79,1.18s45.62-.22,49.77-.19c-.27-1-.86-6.67,2.3-4.63.46-4.4-.06-3.38-.19-5-.09-1,4.16-3.54,8.18-6.27-2.61-1-4.19-3.37-6.17-5.14-1.15-1,0-2.57,1-3.51,1.23-1.18,2-.15,2.61.83a14.77,14.77,0,0,0,4.24,4.06c.57.43,1.2.8,1.32,1.59,2.28-1.76,4-3.48,3.92-4.84,2.92-.81,4.51-.69,4.45,2.95-.06,3.07,5.5,5.66,9.58,4.88a27.55,27.55,0,0,0,10.06-4.51c2.83-1.91,7-2.25,7.72-6.86.25-1.52,2.6-1.56,4.21-1.71,4.84-.48,5-.65,3.07-5.23,5-.8,7-4.45,8.26-8.83.81-2.84,3.32-5.65,3.37-8,.12-4.78,3.56-8.07,4-12.56a54.34,54.34,0,0,0-.16-14c-.9-5.21-.15-10.88-4.94-16.29,16.85,3.35,30.2-5.39,44.76-8.32,1.2,4.44-.43,8.29-2.72,12.82,6.13-2.18,11.28-1,16.3,1.44,2.17,1,4.05.08,5.93-1.64-5.55-2.61-6.84-7.35-6.74-12.87C658,360.57,658.56,359.79,660.64,359.49Zm-6.16-64.71a5.07,5.07,0,0,1,2.39-2.63,1.17,1.17,0,0,1,1.22,1.16c.17,1.67-1.23,1.92-2.34,2.32C655.07,295.86,654.27,295.3,654.48,294.78Zm9.76-12.36c-3.24,1.74-6.5,3.68-10.45,2.38-3.71-1.22-4.13-2.37-2-5.78a13,13,0,0,0-7.05-1.54c-1.92,0-3.69-.37-5-1.88-.73-.82-1.69-1.78-1.47-2.85.31-1.54,1.81-.72,2.78-.84,2.77-.33,3.29-1.87,2.23-4.13A38.88,38.88,0,0,0,641,264c-.39-.62-1.69-.81-.88-2a2.16,2.16,0,0,1,2.21-1c4.63.53,9.14-1.59,13.82-.58,1,.21,2.67,0,3.13-.61,2.34-3.25,4.26-1.39,6.68-.1,2,1.06,4.46,1.26,6.72,1.8,2.76.65,3,2.09,1.47,4.26a10.36,10.36,0,0,1-3.51,3.21c-2.49,1.34-1.72,2.26.14,3.48,2.58,1.7,5.81,2.95,5.95,7.28C671.79,277.75,668.1,280.36,664.24,282.42Zm9.81-28.17c-1.54-1.17-3.42-1.34-5.18-1.77-3.46-.85-4.82-3.12-4.79-6.46s2.13-4.37,4.89-5c2.93-.7,6.2-.89,7.64-4.32.55-1.3,1.45-.38,2.17-.16,3.52,1.07,7,2.19,11,3.44-2.9,4.68-5.41,9.18-8.37,13.37C679,256.72,677.33,256.74,674.05,254.25Zm15.86,15.92c-.57,1.23-1.88,1.48-3,1.81-.45.12-1.11,0-1.13-.6,0-1.15,1.09-1.52,1.72-2.21s1.37-1.34,2.31-2.24A3.91,3.91,0,0,1,689.91,270.17Zm4.33-23c.32-1.28.83-2.33,2.35-2.52.9,0,.95.71.65,1.25-.52.92.2,2.77-1.84,2.61C694.58,248.48,694,248.26,694.24,247.2Zm4,27.52c-.71-1.13-3.12-.32-3-2.5a1.23,1.23,0,0,1,1.49-1.25c1.27.35,2.75.67,2.94,2.36C699.7,274.14,699.3,274.74,698.22,274.72Zm-3.17-14.23c-.79-2.68.33-3.63,2-4.69,2.09-1.33,3.12.32,4.15,1.73,1.25,1.68,2.39,3.44,3.73,5a4.31,4.31,0,0,0,2.21,1.24c4.74,1.09,4.82,1.15,4.07,6-3.06-.86-6.12-1.76-9.2-2.57A9,9,0,0,1,695.05,260.49ZM726,286.61c-4.21,1.16-6.47-.51-8.62-2.51-2.89-1.61-5.75-3.77-8.87-.42a.51.51,0,0,1-.89-.07c-1-2.71-3.7-4.28-4.7-7a2.83,2.83,0,0,1,1-3c.95-1,1.89-.15,2.64.26,4.46,2.45,7.75,6.35,11.64,9.53A29.84,29.84,0,0,0,726,286.61Zm-7-17.23,3.06,3.28C719,272.86,719,272.86,718.93,269.38Zm3.47-27.26c-2.22,2.92-4.94,3.31-8,1.21-9.94-4.61-20.13-8.49-31.23-10.48a7.55,7.55,0,0,1,6-2.86c6.74-.37,12.94.16,18.27,5.63,2.33,2.39,5.68,4,7.73,7,2.73,1.75,4.2-.26,5.93-1.86.65-.6,1.21-2.44,2.44-1.21S723,241.38,722.4,242.12Zm3.8,10.8c-1.2-.3-3-.62-3-2.13.07-1.3,1.62-2.28,3-2.32,1.66-.06.86,1.67,1.32,2.47C727.5,252,727.78,253.31,726.2,252.92Zm11.17,21.43a1.81,1.81,0,0,1-3,.64,6.45,6.45,0,0,1-2.44-5.74c1.36,1.12,2.16,2.75,4.07,2.86C737.49,272.2,737.91,273.16,737.37,274.35Zm-2.28-39.6c-1.34.42-2.7.37-2.43,2.69.24,2.06-1.88,2.52-3.76,2.87-1.77-.27-1.23-1.4-.53-2.28,1.67-2.08,3.45-4.09,5.25-6.06.55-.62,1.25-1.26,2.22-.75A2.21,2.21,0,0,1,737,233C737.15,234.35,736,234.46,735.09,234.75Zm2.79-15.17c-1.27-1.21-3.64-1.12-4.09-3-.19-.83,1.37-.93,2.11-.83a3.78,3.78,0,0,1,3.17,2.8C739,219.46,738.37,220.05,737.88,219.58Z" transform="translate(-37.77 -17.97)"/><path class="cls-1" d="M533.73,464.18h-.1C533.68,464.36,533.73,464.4,533.73,464.18Z" transform="translate(-37.77 -17.97)"/><path class="cls-1" d="M524.17,369.18c.66,1.58,2.07,1.54,3.69,1.56-.47-1.7-1.21-2.75-2.92-2.57C524.63,368.2,524.09,369,524.17,369.18Z" transform="translate(-37.77 -17.97)"/></svg>